<svg width="393" height="454" viewBox="0 0 393 454" fill="none" xmlns="http://www.w3.org/2000/svg">
<path fill-rule="evenodd" clip-rule="evenodd" d="M344.25 104.073C328.549 99.7947 310.482 94.8647 301.318 83.7513C285.158 64.1516 284.352 21.6035 257.948 22.3258C208.893 23.6672 242.012 110.599 162.59 106.833C100.938 103.91 80.8788 87.7871 63.4478 92.1441C11.9387 105.017 93.291 184.728 55.5507 204.676C5.79245 230.977 -22.4141 232.383 23.0424 286.535C59.9404 330.491 21.7533 376.288 42.7131 397.779C70.402 426.169 103.318 404.224 127.992 407.143C146.437 409.325 175.405 415.795 193.515 428.797C220.56 448.215 242.599 443.826 251.457 416.705C264.099 377.999 257.21 337.559 315.93 346.665C357.404 350.754 375.828 333.86 385.183 317.338C408.729 275.758 372.579 236.498 361.97 205.738C348.1 165.525 379.794 139.749 373.207 121.715C370.691 114.83 362.595 109.074 344.249 104.073" fill="#1C2023"/>
<path fill-rule="evenodd" clip-rule="evenodd" d="M142.511 73.9229C171.969 90.4712 201.408 107.004 230.884 123.566C260.323 140.107 289.845 156.705 319.44 173.313L319.587 254.299L319.733 335.444C290.168 318.806 260.61 302.159 231.085 285.536C201.55 268.908 172.025 252.293 142.505 235.685C142.495 208.725 142.496 181.742 142.497 154.804C142.497 127.867 142.499 100.93 142.511 73.9236" fill="#4630EB"/>
<path fill-rule="evenodd" clip-rule="evenodd" d="M108.333 103.213C137.818 119.753 167.274 136.307 196.722 152.851C226.2 169.41 255.694 185.951 285.225 202.55C285.266 229.538 285.342 256.595 285.394 283.608C285.447 310.642 285.5 337.677 285.542 364.734C255.972 348.089 226.409 331.411 196.855 314.77C167.315 298.136 137.807 281.508 108.306 264.908C108.303 237.906 108.322 210.972 108.319 184.015C108.316 157.081 108.336 130.124 108.333 103.213Z" fill="#15181A"/>
<path fill-rule="evenodd" clip-rule="evenodd" d="M108.675 103.592C132.802 117.08 156.908 130.577 181.008 144.069L196.466 152.724C209.414 159.972 222.365 167.218 235.322 174.466C251.832 183.702 268.352 192.944 284.882 202.202C284.907 218.25 284.944 234.323 284.98 250.396C285.005 261.212 285.03 272.028 285.051 282.836L285.052 283.557C285.104 310.016 285.156 336.475 285.197 362.956C269.672 354.244 254.149 345.529 238.628 336.81C224.786 329.037 210.947 321.264 197.109 313.499C187.289 307.989 177.469 302.478 167.649 296.965C147.975 285.922 128.309 274.885 108.647 263.86C108.646 250.476 108.65 237.108 108.654 223.747C108.659 210.292 108.662 196.844 108.661 183.389C108.659 169.963 108.664 156.531 108.668 143.102C108.672 129.927 108.675 116.754 108.675 103.592ZM181.517 143.163C157.16 129.525 132.794 115.884 108.409 102.252L107.634 101.818V102.706C107.635 116.162 107.632 129.631 107.627 143.102C107.623 156.531 107.619 169.964 107.62 183.39C107.622 196.844 107.618 210.293 107.613 223.748C107.61 237.21 107.606 250.68 107.607 264.165V264.47L107.872 264.619C127.63 275.699 147.386 286.784 167.139 297.873C176.956 303.383 186.776 308.895 196.599 314.407C210.436 322.171 224.276 329.944 238.117 337.717C253.897 346.58 269.679 355.444 285.463 364.298L286.239 364.734L286.238 363.845C286.196 337.067 286.144 310.312 286.092 283.557L286.09 282.836C286.069 272.028 286.044 261.212 286.019 250.396C285.982 234.221 285.945 218.047 285.92 201.897L285.92 201.591L285.655 201.443C269.036 192.135 252.429 182.844 235.831 173.559C222.874 166.31 209.923 159.065 196.974 151.816L181.517 143.163Z" fill="white"/>
<path fill-rule="evenodd" clip-rule="evenodd" d="M252.256 245.481C241.237 228.222 233.927 201.867 233.906 182.666C233.885 163.465 237.854 153.705 244.355 146.279C250.856 138.853 259.937 136.629 270.134 141.024C270.141 149.225 270.16 157.426 270.191 165.627C258.443 161.551 249.442 175.372 249.472 191.422C249.504 207.471 253.658 218.172 259.991 228.539C257.398 234.191 254.804 239.842 252.255 245.481" fill="#15181A"/>
<path fill-rule="evenodd" clip-rule="evenodd" d="M252.179 244.699C246.967 236.409 242.611 226.126 239.497 215.589C236.171 204.33 234.266 192.793 234.255 183.1C234.244 173.576 235.232 166.4 237.037 160.688C238.832 155.008 241.438 150.779 244.674 147.125C247.927 143.451 251.83 141.084 256.193 140.205C260.346 139.367 264.928 139.875 269.781 141.883C269.787 145.869 269.792 149.847 269.801 153.825C269.809 157.68 269.82 161.533 269.835 165.383C268.653 165.035 267.427 164.857 266.194 164.855C262.77 164.862 259.679 166.315 257.087 168.796C254.531 171.245 252.462 174.696 251.046 178.743C249.673 182.67 248.914 187.161 248.923 191.837C248.939 199.903 250.004 206.626 251.869 212.638C253.707 218.561 256.32 223.786 259.473 228.917L259.43 229.008C256.97 234.31 254.509 239.611 252.179 244.7V244.699ZM238.492 215.877C241.734 226.851 246.319 237.559 251.815 246.069L252.335 246.876L252.734 246.004C255.327 240.331 257.855 234.885 260.383 229.439L260.657 228.847L260.512 228.612C257.336 223.472 254.707 218.252 252.87 212.334C251.033 206.415 249.985 199.79 249.969 191.837C249.961 187.276 250.699 182.901 252.035 179.08C253.397 175.188 255.376 171.878 257.813 169.544C260.216 167.245 263.062 165.898 266.194 165.892C267.479 165.889 268.815 166.11 270.191 166.583L270.888 166.822L270.885 166.091C270.868 162.001 270.856 157.914 270.847 153.824C270.839 149.733 270.833 145.638 270.827 141.539V141.195L270.511 141.061C265.34 138.857 260.437 138.29 255.984 139.188C251.391 140.114 247.293 142.595 243.886 146.442C240.558 150.2 237.879 154.547 236.035 160.38C234.202 166.183 233.197 173.46 233.208 183.1C233.219 192.892 235.139 204.531 238.492 215.877ZM282.184 422.149L283.189 403.517L284.193 384.843V384.776C284.191 383.513 284.417 382.506 284.805 381.815C284.975 381.512 285.167 381.288 285.376 381.149C285.541 381.035 285.737 380.973 285.937 380.972C286.201 380.972 286.511 381.066 286.862 381.263C287.893 381.844 288.862 383.091 289.59 384.642C290.349 386.257 290.822 388.157 290.825 389.964V390.03C291.178 396.661 291.531 403.274 291.884 409.879C292.236 416.482 292.59 423.077 292.944 429.672C292.958 431.856 293.528 434.133 294.433 436.058C295.389 438.087 296.742 439.77 298.257 440.623C298.999 441.041 299.736 441.238 300.443 441.237C301.155 441.239 301.85 441.027 302.439 440.628C302.992 440.258 303.463 439.733 303.833 439.074C304.42 438.028 304.765 436.604 304.772 434.902L305.263 426.083C305.791 416.601 306.32 407.121 306.848 397.597V397.52C306.838 396.255 307.061 395.246 307.448 394.556C307.617 394.255 307.809 394.031 308.017 393.892C308.18 393.781 308.373 393.72 308.57 393.718C308.841 393.716 309.158 393.811 309.515 394.012C310.553 394.597 311.521 395.844 312.246 397.394C313.006 399.016 313.476 400.926 313.478 402.752V402.819L314.929 429.87L315.604 442.465H315.605C315.631 444.646 316.2 446.929 317.107 448.859C318.051 450.869 319.385 452.539 320.894 453.388C321.634 453.805 322.37 454.001 323.076 454C323.788 454.002 324.483 453.789 325.072 453.389C325.627 453.017 326.098 452.491 326.468 451.832C327.065 450.768 327.411 449.314 327.408 447.581H324.811C324.813 448.847 324.587 449.861 324.197 450.557C323.692 451.458 323.067 451.619 322.168 451.112C321.143 450.536 320.186 449.291 319.46 447.747C318.694 446.117 318.216 444.2 318.201 442.389V442.332L317.526 429.737C317.043 420.727 316.559 411.718 316.076 402.686C316.061 400.492 315.5 398.216 314.599 396.292C313.65 394.267 312.306 392.592 310.788 391.737C310.032 391.31 309.281 391.111 308.561 391.116C307.851 391.118 307.158 391.332 306.57 391.729C306.018 392.1 305.546 392.623 305.177 393.28C304.589 394.328 304.247 395.754 304.249 397.46C303.722 406.982 303.194 416.461 302.666 425.94L302.175 434.76V434.832C302.183 440.541 298.718 439.048 296.786 434.946C296.021 433.32 295.543 431.412 295.54 429.606V429.54L294.481 409.746L293.421 389.897C293.407 387.713 292.843 385.445 291.943 383.53C290.995 381.513 289.649 379.84 288.134 378.987C287.39 378.568 286.649 378.369 285.937 378.37C285.226 378.367 284.53 378.578 283.939 378.976C283.382 379.347 282.907 379.875 282.534 380.539C281.947 381.585 281.602 383.007 281.596 384.71L280.591 403.384C280.298 408.83 280.005 414.27 279.712 419.706L279.587 422.022V422.093C279.629 427.711 276.194 426.497 274.191 422.223C273.43 420.596 272.955 418.686 272.953 416.883V416.817C272.621 410.604 272.284 404.387 271.946 398.163C271.568 391.177 271.189 384.184 270.816 377.185C270.802 375.003 270.243 372.733 269.346 370.815C268.403 368.8 267.066 367.131 265.555 366.28C264.8 365.855 264.049 365.655 263.331 365.661C262.625 365.662 261.936 365.874 261.35 366.269C260.8 366.637 260.332 367.158 259.964 367.813C259.377 368.858 259.035 370.287 259.039 372.002C258.544 380.841 258.05 389.654 257.556 398.47L256.95 409.26V409.332C256.952 410.589 256.726 411.596 256.337 412.289C255.824 413.202 255.185 413.353 254.279 412.842C253.243 412.259 252.278 411.01 251.554 409.466C250.79 407.841 250.318 405.932 250.317 404.128V404.056C249.945 397.31 249.589 390.736 249.242 384.255C248.887 377.652 248.537 371.041 248.186 364.412C248.172 362.232 247.608 359.961 246.707 358.042C245.758 356.019 244.413 354.344 242.901 353.493C242.16 353.076 241.422 352.878 240.713 352.878C240.002 352.876 239.307 353.088 238.719 353.487C238.166 353.857 237.694 354.381 237.324 355.042C236.737 356.089 236.392 357.519 236.385 359.23C235.712 371.661 235.038 384.092 234.363 396.523V396.59C234.364 397.859 234.137 398.873 233.745 399.57C233.575 399.874 233.381 400.1 233.171 400.24C233.004 400.352 232.816 400.412 232.615 400.412C232.352 400.412 232.041 400.319 231.69 400.12L230.417 402.395C231.162 402.816 231.904 403.014 232.615 403.014C233.329 403.016 234.026 402.804 234.618 402.404C235.172 402.032 235.645 401.507 236.017 400.845C236.607 399.795 236.953 398.365 236.96 396.656L237.971 378.028L238.982 359.362V359.296C238.98 358.024 239.207 357.01 239.596 356.317C239.766 356.014 239.958 355.789 240.165 355.65C240.327 355.54 240.518 355.481 240.713 355.481C240.974 355.481 241.281 355.573 241.629 355.769C242.661 356.35 243.628 357.597 244.354 359.144C245.115 360.762 245.586 362.667 245.588 364.479V364.545C245.939 371.174 246.291 377.784 246.645 384.387C247.006 391.114 247.364 397.736 247.719 404.198H247.719C247.734 406.371 248.298 408.643 249.201 410.568C250.148 412.586 251.49 414.263 253.006 415.118C253.751 415.537 254.493 415.737 255.204 415.735C255.918 415.737 256.616 415.524 257.208 415.124C257.763 414.753 258.237 414.225 258.608 413.564C259.196 412.519 259.54 411.098 259.547 409.403L260.153 398.613C260.648 389.795 261.142 380.98 261.636 372.14V372.063C261.627 370.787 261.849 369.777 262.235 369.088C262.402 368.79 262.593 368.57 262.797 368.433C262.957 368.323 263.147 368.264 263.341 368.263C263.609 368.261 263.926 368.355 264.282 368.556C265.312 369.136 266.273 370.377 266.994 371.917C267.749 373.533 268.217 375.436 268.219 377.251V377.317C268.591 384.317 268.97 391.31 269.349 398.296C269.687 404.519 270.024 410.737 270.356 416.949C270.37 419.12 270.935 421.397 271.839 423.325C272.787 425.348 274.129 427.032 275.638 427.89C276.392 428.319 277.139 428.519 277.854 428.513C278.564 428.511 279.258 428.296 279.846 427.898C280.395 427.53 280.867 427.008 281.239 426.351C281.839 425.293 282.188 423.856 282.184 422.149ZM90.8621 245.481C110.822 256.711 130.804 267.965 150.788 279.192C170.816 290.443 190.823 301.707 210.828 312.95L210.879 366.826C190.864 355.569 170.827 344.312 150.789 333.049C130.798 321.81 110.807 310.572 90.8607 299.343C90.8607 281.373 90.8607 263.427 90.8621 245.481Z" fill="white"/>
<path fill-rule="evenodd" clip-rule="evenodd" d="M91.2022 246.563C96.8597 249.744 102.517 252.927 108.175 256.11C122.289 264.05 136.41 271.995 150.533 279.925C161.542 286.109 172.55 292.295 183.556 298.484C192.534 303.533 201.511 308.579 210.486 313.622L210.536 366.441C197.976 359.379 185.409 352.318 172.837 345.256C165.573 341.175 158.309 337.094 151.044 333.012L150.405 332.653C130.656 321.555 110.907 310.457 91.2022 299.368V246.563ZM108.685 255.202L90.9386 245.219L90.1629 244.784V299.979L90.4279 300.128C110.22 311.266 130.058 322.414 149.895 333.561L150.534 333.92C157.798 338.002 165.063 342.084 172.327 346.165C185.157 353.372 197.985 360.578 210.801 367.785L211.577 368.221C211.559 349.817 211.541 331.414 211.526 313.01L211.261 312.862C202.196 307.769 193.132 302.674 184.066 297.576C173.062 291.39 162.055 285.201 151.043 279.017C136.92 271.084 122.801 263.146 108.685 255.202Z" fill="black"/>
<path fill-rule="evenodd" clip-rule="evenodd" d="M114.433 280.35L150.744 300.706L187.146 321.145L187.155 332.497L182.422 334.747L150.727 312.053L109.701 282.599L114.433 280.35Z" fill="#0BDA8F"/>
<path fill-rule="evenodd" clip-rule="evenodd" d="M114.722 280.825L150.735 301.127L186.809 321.495L186.816 332.255L182.662 334.24L151.273 311.641L111.031 282.59L114.722 280.825ZM151.242 300.219L114.761 279.653L109.003 282.405L150.668 312.484L182.558 335.444L187.852 332.914L187.843 320.883L151.242 300.219Z" fill="white"/>
<path fill-rule="evenodd" clip-rule="evenodd" d="M109.701 282.443C121.787 289.25 133.878 296.045 145.936 302.859C158.027 309.693 170.153 316.529 182.262 323.36L182.27 334.747C170.16 327.891 158.022 321.072 145.918 314.241C133.872 307.443 121.767 300.628 109.703 293.797L109.701 282.442" fill="#15181A"/>
<path fill-rule="evenodd" clip-rule="evenodd" d="M110.043 283.531L119.529 288.877C128.25 293.788 136.968 298.706 145.681 303.631C155.352 309.101 165.026 314.566 174.702 320.027L181.919 324.101L181.927 334.354C173.779 329.738 166.66 325.724 159.544 321.711C155.084 319.196 150.626 316.682 146.172 314.166C142.691 312.2 139.206 310.233 135.717 308.264C126.737 303.194 117.741 298.117 110.045 293.755L110.043 283.531ZM120.039 287.965L109.778 282.182L109.003 281.745L109.005 294.363L109.27 294.513C117.911 299.409 126.557 304.296 135.208 309.176L145.663 315.078C150.116 317.594 154.575 320.109 159.035 322.624C167.134 327.192 175.239 331.762 182.192 335.701L182.968 336.142L182.958 323.487L175.212 319.114C165.534 313.65 155.85 308.183 146.19 302.718C137.485 297.794 128.763 292.88 120.039 287.965ZM128.603 27.4298C129.721 28.0565 130.635 29.8519 130.634 31.4209C130.634 32.9907 129.719 33.7597 128.599 33.1324C127.479 32.5043 126.576 30.72 126.578 29.1482C126.58 27.5764 127.484 26.8025 128.603 27.4298ZM79.6517 57.2294C80.7749 57.8609 81.6821 59.6639 81.669 61.248C81.6566 62.8329 80.7288 63.5965 79.6042 62.9643C78.4803 62.3321 77.5897 60.5498 77.6027 58.9622C77.6165 57.3753 78.5278 56.598 79.6517 57.2294ZM79.7453 45.7467C80.8672 46.3775 81.7722 48.1728 81.7598 49.757C81.7468 51.3419 80.8211 52.1192 79.6985 51.4884C78.5766 50.8576 77.6874 49.0657 77.7005 47.4815C77.7142 45.898 78.6241 45.1166 79.7453 45.7467ZM79.8396 34.3024C80.9587 34.9319 81.8617 36.7238 81.8493 38.3045C81.8376 39.8866 80.9133 40.6543 79.7928 40.0242C78.6723 39.3948 77.7844 37.6043 77.7982 36.027C77.812 34.449 78.7205 33.673 79.8396 34.3024ZM79.9325 22.9015C81.0502 23.5296 81.9519 25.3077 81.9395 26.883C81.9271 28.4582 81.0041 29.2218 79.8864 28.5924C78.768 27.9643 77.8815 26.1841 77.8945 24.6095C77.9083 23.0343 78.8154 22.2735 79.9325 22.9015ZM80.0254 11.5385C81.1411 12.1658 82.0414 13.9392 82.029 15.5055C82.0166 17.0711 81.0957 17.8381 79.9793 17.2114C78.8629 16.5834 77.9785 14.8004 77.9916 13.2355C78.0054 11.6705 78.9104 10.9118 80.0254 11.5385ZM80.1183 0.220117C81.232 0.846087 82.1308 2.62494 82.1184 4.18505C82.1061 5.74447 81.1865 6.49976 80.0722 5.87311C78.9572 5.24714 78.0749 3.47172 78.088 1.91299C78.101 0.354253 79.0047 -0.405853 80.1183 0.220117ZM87.8063 61.8004C88.933 62.4333 89.838 64.2307 89.8277 65.8197C89.8174 67.4087 88.8937 68.1784 87.7671 67.5462C86.6397 66.9134 85.7346 65.1153 85.7456 63.5304C85.7573 61.9449 86.681 61.1682 87.807 61.8004H87.8063ZM87.8861 50.3163C89.01 50.9471 89.9089 52.741 89.8986 54.3266C89.8876 55.9128 88.9715 56.6867 87.8462 56.0552C86.7216 55.4238 85.8172 53.627 85.8289 52.0415C85.8406 50.4566 86.7622 49.6848 87.8868 50.3163H87.8861ZM87.966 38.8631C89.0878 39.4932 89.9846 41.2837 89.9743 42.8665C89.964 44.4487 89.0493 45.2143 87.926 44.5835C86.8028 43.9527 85.9005 42.167 85.9122 40.5848C85.9232 39.0027 86.8434 38.2337 87.966 38.8638V38.8631ZM88.0451 27.4546C89.1649 28.0833 90.0603 29.8629 90.05 31.4367C90.039 33.0092 89.1264 33.779 88.0052 33.1496C86.884 32.5202 85.9831 30.7317 85.9955 29.1599C86.0058 27.5867 86.9246 26.8259 88.0451 27.4546ZM88.1229 16.0902C89.2413 16.721 90.1354 18.4902 90.1257 20.0572C90.1147 21.6235 89.2035 22.3946 88.0836 21.7659C86.9652 21.1378 86.0656 19.3438 86.0767 17.7775C86.0884 16.2112 87.0051 15.4594 88.1229 16.0902ZM88.2013 4.75668C89.3177 5.38265 90.2104 7.16081 90.1994 8.72161C90.1897 10.2824 89.2798 11.0466 88.1621 10.42C87.045 9.79264 86.1476 8.01241 86.1593 6.4523C86.1703 4.89219 87.0857 4.12933 88.2013 4.75668ZM95.9567 66.3734C97.08 67.0035 97.9899 68.8071 97.9816 70.3968C97.9726 71.9872 97.0483 72.7535 95.9237 72.1227C94.7997 71.4912 93.8898 69.6952 93.8995 68.1055C93.9084 66.5165 94.8328 65.7426 95.9567 66.3734ZM96.0214 54.8742C97.1433 55.5042 98.0518 57.3031 98.0429 58.89C98.0346 60.4769 97.1116 61.2473 95.9891 60.6179C94.8672 59.9878 93.9587 58.1897 93.9683 56.6035C93.9773 55.0165 94.9002 54.2447 96.0214 54.8742ZM96.0868 43.4203C97.2059 44.0483 98.1124 45.8464 98.1034 47.4272C98.0958 49.0079 97.1743 49.7728 96.0545 49.1441C94.934 48.5154 94.0275 46.7276 94.0365 45.1441C94.0461 43.5613 94.967 42.7916 96.0868 43.4203ZM96.1508 32.0029C97.2686 32.6302 98.1736 34.4153 98.1654 35.9898C98.1564 37.5637 97.2376 38.3362 96.1191 37.7088C95.0007 37.0808 94.0956 35.284 94.1046 33.7109C94.1142 32.137 95.0338 31.3762 96.1508 32.0029ZM96.2155 20.6302C97.3305 21.2561 98.2342 23.0343 98.2259 24.602C98.2177 26.1703 97.3002 26.9373 96.1838 26.3107C95.0668 25.684 94.1638 23.8948 94.1727 22.3272C94.1824 20.7595 95.1005 20.0042 96.2155 20.6302ZM96.2802 9.28911C97.3931 9.9137 98.2954 11.6967 98.2872 13.2582C98.2782 14.8203 97.3622 15.5915 96.2479 14.9627C95.1329 14.334 94.2312 12.5483 94.2409 10.9875C94.2498 9.426 95.1659 8.66383 96.2802 9.28842V9.28911ZM104.122 70.9457C105.248 71.5779 106.141 73.3788 106.135 74.9726C106.128 76.5671 105.224 77.3382 104.098 76.706C102.97 76.0732 102.051 74.2758 102.058 72.6847C102.065 71.0943 102.996 70.3143 104.123 70.9457H104.122ZM104.173 59.4396C105.297 60.0704 106.188 61.8637 106.182 63.4513C106.175 65.0396 105.273 65.8245 104.148 65.193C103.022 64.5615 102.105 62.7579 102.113 61.1737C102.119 59.5896 103.049 58.8088 104.173 59.4396ZM104.223 47.983C105.345 48.6131 106.235 50.3988 106.228 51.9802C106.222 53.5624 105.321 54.3417 104.198 53.7109C103.075 53.0809 102.159 51.2827 102.166 49.7006C102.173 48.1199 103.102 47.3536 104.223 47.983ZM104.274 36.5642C105.394 37.1929 106.282 38.9663 106.276 40.5408C106.269 42.1161 105.369 42.8968 104.249 42.2674C103.127 41.638 102.213 39.8399 102.221 38.2653C102.228 36.6901 103.154 35.9355 104.274 36.5642ZM104.324 25.1839C105.442 25.8113 106.328 27.5826 106.322 29.1523C106.315 30.7207 105.418 31.4959 104.299 30.8679C103.179 30.2398 102.267 28.4486 102.274 26.8802C102.281 25.3119 103.206 24.5559 104.324 25.1839ZM104.374 13.8277C105.49 14.4537 106.375 16.2346 106.369 17.8002C106.362 19.3665 105.466 20.1321 104.349 19.5062C103.232 18.8788 102.32 17.0952 102.327 15.533C102.335 13.9708 103.257 13.2011 104.374 13.8277ZM112.261 75.5174C113.385 76.1447 114.298 77.9497 114.294 79.5449C114.289 81.1408 113.368 81.9119 112.244 81.2811C111.119 80.6503 110.207 78.8488 110.211 77.2543C110.217 75.6598 111.138 74.8907 112.262 75.5174H112.261ZM112.298 64.0023C113.419 64.6317 114.331 66.4333 114.327 68.0223C114.322 69.6113 113.402 70.3838 112.28 69.7537C111.158 69.1242 110.246 67.3234 110.251 65.7358C110.257 64.1468 111.176 63.3736 112.298 64.0023ZM112.334 52.5381C113.453 53.1661 114.363 54.9601 114.359 56.5429C114.354 58.1258 113.437 58.8927 112.316 58.264C111.196 57.6353 110.286 55.8427 110.291 54.2606C110.296 52.6784 111.214 51.9101 112.334 52.5381ZM112.37 41.1124C113.488 41.7384 114.395 43.5283 114.391 45.1021C114.387 46.6753 113.47 47.4457 112.352 46.8184C111.233 46.1911 110.325 44.3991 110.33 42.8232C110.336 41.2473 111.253 40.4844 112.37 41.1118V41.1124ZM112.406 29.7225C113.521 30.3485 114.428 32.1343 114.423 33.7047C114.419 35.2751 113.504 36.0373 112.388 35.4106C111.271 34.7846 110.364 32.9934 110.37 31.4237C110.375 29.8539 111.29 29.0966 112.406 29.7225ZM112.441 18.3588C113.554 18.9841 114.459 20.7719 114.455 22.3389C114.451 23.9058 113.538 24.6721 112.423 24.0476C111.308 23.4216 110.404 21.6345 110.409 20.0682C110.414 18.5019 111.328 17.7342 112.441 18.3588ZM120.412 80.0856C121.538 80.7171 122.449 82.5241 122.447 84.1207C122.445 85.7166 121.527 86.4918 120.401 85.8596C119.273 85.2268 118.372 83.4301 118.376 81.8342C118.379 80.2383 119.286 79.4541 120.412 80.0856ZM120.433 68.5622C121.557 69.193 122.468 70.9932 122.465 72.5829C122.463 74.1733 121.547 74.952 120.423 74.3239C119.297 73.6959 118.395 71.8964 118.396 70.3067C118.397 68.7177 119.309 67.9322 120.433 68.5622ZM120.455 57.096C121.577 57.7261 122.485 59.5187 122.483 61.1022C122.481 62.6864 121.567 63.4561 120.444 62.8267C119.321 62.1966 118.418 60.4074 118.42 58.8233C118.424 57.2411 119.333 56.4673 120.455 57.0967V57.096ZM120.476 45.6621C121.596 46.2901 122.504 48.0786 122.501 49.6531C122.499 51.2277 121.586 52.0016 120.465 51.3728C119.345 50.7434 118.442 48.9522 118.446 47.3783C118.45 45.8045 119.356 45.0334 120.476 45.6621ZM120.498 34.2708C121.616 34.8982 122.522 36.6825 122.519 38.2536C122.517 39.8254 121.606 40.591 120.487 39.963C119.368 39.3357 118.468 37.5451 118.471 35.9774C118.475 34.4098 119.38 33.6435 120.498 34.2715V34.2708ZM120.519 22.8933C121.635 23.5193 122.54 25.3029 122.537 26.874C122.535 28.4452 121.626 29.2121 120.509 28.5848C119.391 27.9588 118.492 26.1752 118.496 24.6075C118.499 23.0398 119.403 22.2666 120.52 22.8926L120.519 22.8933ZM128.567 84.6565C129.696 85.2887 130.617 87.0985 130.616 88.6951C130.616 90.293 129.693 91.0738 128.563 90.4409C127.433 89.8081 126.522 88.0058 126.524 86.4086C126.525 84.812 127.438 84.0237 128.567 84.6565ZM128.574 73.1318C129.7 73.7599 130.621 75.5649 130.62 77.1559C130.62 78.7477 129.698 79.5222 128.57 78.8907C127.443 78.2586 126.533 76.4584 126.535 74.8667C126.536 73.2763 127.448 72.5031 128.574 73.1318ZM128.581 61.6573C129.706 62.2874 130.624 64.0855 130.624 65.6677C130.623 67.2491 129.703 68.0223 128.578 67.3915C127.452 66.7607 126.544 64.9633 126.545 63.3825C126.547 61.8011 127.457 61.0272 128.581 61.6573ZM128.588 50.2207C129.711 50.8501 130.627 52.6317 130.627 54.2103C130.627 55.7883 129.709 56.5588 128.585 55.93C127.461 55.2999 126.555 53.5039 126.556 51.9286C126.558 50.3541 127.466 49.5919 128.588 50.2207ZM128.595 38.8225C129.716 39.4505 130.632 41.2335 130.631 42.8033C130.63 44.3723 129.713 45.1407 128.592 44.5119C127.47 43.8832 126.565 42.0975 126.567 40.5264C126.569 38.9539 127.474 38.1945 128.596 38.8218L128.595 38.8225Z" fill="white"/>
<path fill-rule="evenodd" clip-rule="evenodd" d="M315.418 248.271C308.962 242.956 302.479 237.614 296.023 232.271C300.092 209.756 285 164.31 262.587 154.396C262.544 144.087 262.529 133.777 262.515 123.438C307.499 144.574 322.051 202.593 315.418 248.271Z" fill="#0BDA8F"/>
<path fill-rule="evenodd" clip-rule="evenodd" d="M315.197 247.687C312.186 245.219 309.17 242.746 306.155 240.268C302.977 237.659 299.799 235.046 296.628 232.433C298.725 220.276 295.395 201.72 288.415 185.53C282.323 171.398 273.437 159.042 262.931 154.251C262.911 149.195 262.897 144.141 262.885 139.085C262.876 134.189 262.868 129.29 262.861 124.384C283.171 134.143 297.202 151.455 305.819 171.704C315.934 195.473 318.591 223.283 315.197 247.687V247.687ZM305.492 241.073C308.748 243.746 312.004 246.417 315.253 249.08L315.967 249.665L316.101 248.751C319.716 223.958 317.099 195.545 306.779 171.296C297.963 150.581 283.529 132.9 262.56 123.088L261.816 122.74L261.818 123.559C261.825 128.741 261.833 133.914 261.844 139.084C261.855 144.257 261.869 149.425 261.891 154.59L261.893 154.93L262.202 155.066C272.577 159.637 281.396 171.889 287.455 185.942C294.42 202.097 297.721 220.591 295.551 232.55L295.497 232.85L295.733 233.044C298.981 235.722 302.237 238.399 305.492 241.073Z" fill="white"/>
<path fill-rule="evenodd" clip-rule="evenodd" d="M319.733 249.039C314.787 281.651 287.759 292.898 270.763 283.34C253.767 273.782 251.473 267.937 243.674 255.694C246.906 248.549 250.194 241.388 253.482 234.227C258.383 242.268 260.427 246.489 270.719 252.281C281.009 258.073 296.806 251.731 300.159 232.928C306.677 238.307 313.201 243.677 319.733 249.038" fill="#15181A"/>
<path fill-rule="evenodd" clip-rule="evenodd" d="M319.314 248.797C318.234 255.731 316.148 261.676 313.374 266.641C309.381 273.785 303.961 278.898 298.064 281.997C292.182 285.088 285.823 286.176 279.934 285.278C276.941 284.821 274.07 283.85 271.445 282.368C256.508 273.934 253.082 268.416 247.071 258.735C246.402 257.658 245.7 256.527 244.851 255.187C247.96 248.288 251.018 241.597 254.076 234.909L254.544 235.686C258.805 242.763 261.252 246.828 270.893 252.276C272.506 253.185 274.26 253.815 276.083 254.139C279.877 254.82 283.959 254.212 287.722 252.306C291.471 250.408 294.902 247.221 297.412 242.735C298.889 240.096 300.046 237.006 300.761 233.465C303.776 235.965 306.794 238.462 309.814 240.956C312.98 243.572 316.146 246.185 319.314 248.797ZM314.28 267.151C317.152 262.011 319.301 255.85 320.387 248.662L320.431 248.371L320.201 248.183C316.964 245.511 313.718 242.834 310.473 240.152C307.227 237.471 303.982 234.786 300.743 232.101L300.059 231.533L299.902 232.414C299.23 236.2 298.048 239.468 296.506 242.225C294.103 246.519 290.828 249.567 287.255 251.376C283.697 253.178 279.842 253.752 276.262 253.11C274.555 252.806 272.912 252.217 271.401 251.365C262 246.053 259.604 242.074 255.434 235.147C255.17 234.708 254.897 234.254 254.456 233.528L253.949 232.692L253.35 234.003C250.108 241.092 246.867 248.18 243.79 255.013L243.675 255.268L243.826 255.508C244.62 256.764 245.408 258.023 246.189 259.287C252.291 269.113 255.768 274.713 270.937 283.279C273.673 284.824 276.664 285.836 279.78 286.311C285.879 287.242 292.46 286.117 298.543 282.92C304.612 279.731 310.183 274.479 314.28 267.151Z" fill="white"/>
<path fill-rule="evenodd" clip-rule="evenodd" d="M48.2957 415.316L86.246 433.776C98.5825 412.588 98.0174 414.821 102.881 409.342C104.504 407.514 107.315 403.754 110.807 399.04C112.857 396.273 114.731 392.94 117.041 388.843C119.388 384.68 125.365 378.996 127.272 371.142L127.52 371.008C133.523 371.664 137.387 370.62 139.11 367.877C136.072 366.613 132.744 363.883 129.65 362.855L129.617 361.411L129.687 361.118C138.224 361.782 145.617 360.462 150.173 355.639C150.173 355.639 144.061 353.177 137.72 351.382C141.501 350.543 144.314 348.727 146.211 345.924C132.521 340.982 120.854 333.177 107.685 342.447C108.511 341.436 109.348 340.433 110.196 339.44C132.448 326.174 146.572 320.087 145.356 308.247C133.869 314.848 118.215 319.87 100.137 329.411C88.4016 339.868 80.3228 349.511 75.902 358.339C64.6833 380.252 66.4625 400.268 48.2971 415.317" fill="#15181A"/>
<path fill-rule="evenodd" clip-rule="evenodd" d="M99.4957 375.195C102.099 368.671 104.614 363.671 107.229 359.968C109.81 356.312 112.483 353.937 115.429 352.62C117.037 351.901 118.291 351.468 119.938 351.329C121.617 351.188 123.718 351.346 127.01 351.81C131.869 352.496 135.959 352.369 139.277 351.43C142.648 350.478 145.224 348.692 147.007 346.073L147.381 345.525L146.755 345.3C144.448 344.472 142.141 343.538 139.876 342.621C128.94 338.192 118.983 334.16 107.893 341.919L108.488 342.763C119.115 335.327 128.825 339.26 139.487 343.578C141.525 344.403 143.598 345.242 145.764 346.035C144.144 348.153 141.889 349.62 138.999 350.438C135.818 351.337 131.868 351.454 127.151 350.789C123.776 350.313 121.609 350.152 119.853 350.3C118.066 350.45 116.723 350.912 115.008 351.679C111.886 353.075 109.075 355.562 106.382 359.374C103.724 363.139 101.172 368.21 98.5362 374.816L99.495 375.195H99.4957Z" fill="white"/>
<path fill-rule="evenodd" clip-rule="evenodd" d="M137.445 351.816C142.431 353.272 147.257 355.152 149.05 355.871C147.047 357.821 144.499 359.125 141.576 359.911C137.96 360.883 133.768 361.065 129.32 360.702L129.239 361.769C133.79 362.141 138.095 361.949 141.834 360.944C145.215 360.036 148.13 358.463 150.346 356.041L150.869 355.47L150.165 355.177C150.147 355.17 144.056 352.636 137.724 350.786L137.445 351.816V351.816ZM125.052 371.078C128.09 371.806 131.141 371.879 133.668 371.422C136.308 370.946 138.402 369.882 139.371 368.368L139.706 367.845L139.126 367.608C137.747 367.044 136.132 366.044 134.491 365.028C132.486 363.787 130.447 362.524 128.675 361.945L128.343 362.938C130.002 363.479 131.981 364.706 133.928 365.911C135.373 366.806 136.801 367.69 138.097 368.298C137.168 369.303 135.516 370.029 133.478 370.397C131.087 370.828 128.192 370.757 125.301 370.065L125.052 371.078ZM54.0682 432.435C67.6449 442.254 82.9919 440.6 86.4346 433.84C88.9468 428.906 86.5516 420.698 77.4975 416.361C67.3345 411.493 53.3455 410.451 48.1918 415.373C44.6252 418.778 45.438 426.193 54.0682 432.435Z" fill="white"/>
<path fill-rule="evenodd" clip-rule="evenodd" d="M53.5202 432.421C55.2032 433.636 56.9794 434.716 58.8323 435.651C64.558 438.534 70.2926 439.604 75.0726 439.307C79.9263 439.006 83.8205 437.291 85.7724 434.623C86.0389 434.258 86.2713 433.871 86.4668 433.464C87.6933 430.932 87.7078 427.625 86.2975 424.398C84.9045 421.209 82.1198 418.091 77.7403 415.886C77.6144 415.823 77.4623 415.748 77.2847 415.664C72.0332 413.158 65.7631 411.666 60.2081 411.479C54.905 411.301 50.2255 412.317 47.6376 414.779C47.3522 415.05 47.0919 415.346 46.8599 415.663C45.6761 417.282 45.2156 419.453 45.6871 421.868C46.1482 424.229 47.5034 426.827 49.9495 429.36C50.953 430.398 52.1382 431.427 53.5202 432.421ZM59.2989 434.733C57.4959 433.822 55.7675 432.77 54.13 431.588C52.7948 430.627 51.6557 429.64 50.697 428.647C48.3995 426.268 47.1317 423.852 46.7064 421.675C46.2914 419.55 46.6823 417.659 47.7003 416.268C47.896 416 48.1153 415.749 48.3555 415.52C50.7272 413.264 55.1349 412.337 60.1751 412.506C65.5945 412.689 71.7125 414.145 76.838 416.59C76.9612 416.649 77.1064 416.72 77.2737 416.804C81.417 418.891 84.0435 421.819 85.347 424.804C86.6355 427.752 86.6341 430.748 85.5329 433.021L85.4627 433.161C85.3119 433.455 85.1344 433.741 84.932 434.018C83.1618 436.438 79.5511 437.998 75.012 438.28C70.3979 438.566 64.8505 437.527 59.2989 434.733Z" fill="white"/>
<path fill-rule="evenodd" clip-rule="evenodd" d="M91.5588 218.98C99.2412 223.329 106.923 227.675 114.583 232.02C114.583 238.134 114.584 244.249 114.585 250.362C106.902 246.016 99.2419 241.671 91.5588 237.322V218.98ZM164.134 225.256C171.802 229.555 179.47 233.855 187.115 238.155L187.155 290.811C179.483 286.482 171.812 282.178 164.141 277.873C164.131 260.334 164.121 242.795 164.134 225.257" fill="#4630EB"/>
<path fill-rule="evenodd" clip-rule="evenodd" d="M221.839 220.149C214.888 216.267 207.936 212.385 200.494 208.255L199.715 207.821C199.741 238.391 199.765 268.96 199.794 299.53L200.06 299.679L206.951 303.53C212.413 306.583 217.878 309.638 223.353 312.691L224.137 313.127L224.135 312.236C224.115 304.7 224.101 297.153 224.091 289.603C224.08 282.053 224.072 274.501 224.063 266.953L224.016 221.365L221.839 220.149V220.149ZM139.586 154.002C135.711 151.863 131.837 149.722 127.969 147.582L127.185 147.149L127.185 148.036C127.174 159.009 127.176 169.975 127.177 180.933C127.178 188.208 127.179 195.48 127.177 202.748C127.174 211.867 127.17 220.991 127.166 230.116C127.161 239.241 127.155 248.365 127.146 257.484V257.789L129.132 258.886C136.35 262.869 143.565 266.857 150.778 270.85L151.562 271.284V270.396C151.571 259.45 151.567 248.494 151.564 237.54C151.561 230.242 151.559 222.944 151.56 215.649V214.83C151.563 196.883 151.566 178.892 151.558 160.924V160.62L151.289 160.471C147.392 158.315 143.489 156.158 139.586 154.003" fill="#0BDA8F"/>
<path fill-rule="evenodd" clip-rule="evenodd" d="M127.881 149.241C131.49 151.238 135.105 153.235 138.72 155.231C142.536 157.338 146.352 159.446 150.162 161.554C150.17 179.43 150.167 197.328 150.165 215.182V216.002C150.163 223.3 150.166 230.602 150.168 237.904C150.172 248.568 150.175 259.233 150.167 269.889C143.222 266.043 136.258 262.199 129.293 258.353L127.843 257.553C127.852 248.531 127.858 239.504 127.863 230.477C127.867 221.347 127.87 212.218 127.874 203.095C127.876 195.823 127.875 188.548 127.874 181.268C127.872 170.601 127.871 159.925 127.881 149.241V149.241ZM201.11 209.216C207.971 213.005 214.828 216.803 221.68 220.608L223.324 221.52L223.371 266.22C223.378 273.721 223.386 281.228 223.397 288.731C223.407 295.933 223.421 303.136 223.439 310.338C218.223 307.447 213.017 304.556 207.814 301.666L201.187 297.987L201.11 209.216Z" fill="#0BDA8F"/>
<path fill-rule="evenodd" clip-rule="evenodd" d="M29.4557 200.151C38.7047 200.151 46.2026 207.644 46.2026 216.888C46.2026 226.131 38.7047 233.625 29.4557 233.625C20.2068 233.625 12.7089 226.131 12.7089 216.888C12.7089 207.644 20.2068 200.151 29.4557 200.151Z" fill="#15181A"/>
<path fill-rule="evenodd" clip-rule="evenodd" d="M29.4558 200.496C31.6101 200.493 33.7437 200.916 35.7339 201.74C37.7242 202.564 39.5319 203.773 41.0531 205.297C42.5784 206.818 43.7881 208.624 44.6126 210.614C45.437 212.603 45.86 214.735 45.8572 216.888C45.8572 221.414 44.0216 225.513 41.0531 228.479C39.5319 230.003 37.7241 231.212 35.7339 232.036C33.7436 232.86 31.6101 233.283 29.4558 233.28C24.927 233.28 20.8263 231.445 17.8585 228.479C16.3332 226.959 15.1235 225.152 14.2991 223.163C13.4746 221.174 13.0516 219.041 13.0544 216.888C13.0514 214.735 13.4743 212.603 14.2988 210.614C15.1232 208.624 16.333 206.818 17.8585 205.297C19.3798 203.773 21.1875 202.564 23.1777 201.74C25.168 200.916 27.3015 200.493 29.4558 200.496ZM41.7909 204.56C40.1729 202.939 38.2502 201.653 36.1333 200.776C34.0164 199.9 31.7471 199.45 29.4558 199.453C27.1645 199.45 24.8952 199.9 22.7783 200.776C20.6614 201.653 18.7387 202.939 17.1207 204.56C15.4985 206.177 14.212 208.099 13.3352 210.215C12.4584 212.33 12.0087 214.598 12.0117 216.888C12.0088 219.178 12.4586 221.446 13.3353 223.561C14.2121 225.677 15.4985 227.599 17.1207 229.216C18.7387 230.837 20.6614 232.123 22.7783 232.999C24.8952 233.876 27.1645 234.325 29.4558 234.322C34.2737 234.322 38.6345 232.371 41.7909 229.216C43.4132 227.599 44.6998 225.677 45.5767 223.562C46.4536 221.446 46.9035 219.178 46.9006 216.888C46.9006 212.073 44.948 207.715 41.7909 204.56Z" fill="white"/>
<path fill-rule="evenodd" clip-rule="evenodd" d="M39.7309 202.989C43.6726 206.067 46.2026 210.828 46.2026 216.171C46.2026 225.452 38.5732 232.976 29.1612 232.976C25.5022 232.984 21.937 231.82 18.9886 229.655C37.8705 233.505 44.8743 214.377 39.7309 202.989Z" fill="white"/>
<path fill-rule="evenodd" clip-rule="evenodd" d="M41.2479 205.608C42.4731 206.835 43.4902 208.252 44.2591 209.806C45.3217 211.956 45.8729 214.323 45.8696 216.722C45.8696 221.11 44.0546 225.083 41.1206 227.958C38.1865 230.834 34.1333 232.613 29.6554 232.613C27.8728 232.613 26.1583 232.331 24.5554 231.811C23.6851 231.529 22.8402 231.174 22.0294 230.75C25.6986 231.131 28.8742 230.604 31.5516 229.436C34.337 228.22 36.576 226.31 38.2663 224.002C39.9492 221.703 41.0862 219.011 41.676 216.217C42.429 212.648 42.2872 208.907 41.2472 205.608H41.2479ZM45.1848 209.368C44.0403 207.06 42.3872 205.042 40.3497 203.465L38.7116 202.194L39.5623 204.065C41.1674 207.597 41.5328 211.92 40.6691 216.016C40.1074 218.675 39.0282 221.234 37.4321 223.413C35.8443 225.583 33.743 227.376 31.1324 228.516C28.0607 229.857 24.2739 230.296 19.7712 229.384L17.5041 228.924L19.3624 230.282C20.8436 231.364 22.4875 232.204 24.2326 232.771C25.9844 233.338 27.8147 233.626 29.6561 233.624C34.4176 233.624 38.7288 231.732 41.8494 228.673C44.9707 225.615 46.9006 221.389 46.9006 216.722C46.9006 214.087 46.2839 211.592 45.1855 209.368H45.1848ZM97.1406 417.54C96.6678 415.125 95.8384 413.004 94.6519 411.177C93.4612 409.342 91.9153 407.81 90.015 406.578L89.4651 407.439C91.2442 408.592 92.6889 410.024 93.7984 411.733C94.912 413.448 95.6925 415.449 96.1406 417.736L97.1406 417.54Z" fill="white"/>
<path fill-rule="evenodd" clip-rule="evenodd" d="M136.914 208.331L83.1715 178.389V181.351L136.914 211.308V208.331ZM136.914 190.145L61.1201 147.895L60.8558 148.362V150.725L136.914 193.123V190.145ZM136.914 171.415L60.8558 129.017V131.994L136.914 174.392V171.415ZM72.0911 172.197L61.063 166.049L60.8565 166.416V168.911L72.0911 175.158V172.197Z" fill="#4630EB"/>
<path fill-rule="evenodd" clip-rule="evenodd" d="M29.1068 267.797C36.622 267.797 42.7139 269.359 42.7139 271.284C42.7139 273.21 36.622 274.771 29.1068 274.771C21.5923 274.771 15.4998 273.21 15.4998 271.284C15.4998 269.358 21.5923 267.797 29.1068 267.797Z" fill="white"/>
<path fill-rule="evenodd" clip-rule="evenodd" d="M306.287 78.1072L323.826 86.7229L341.364 95.3372L323.571 106.25L305.777 117.162L306.032 97.6347L306.287 78.1072ZM190.643 417.038L200.412 407.275L210.181 417.038L200.412 426.802L190.643 417.038Z" fill="#4630EB"/>
<path fill-rule="evenodd" clip-rule="evenodd" d="M33.6424 262.916C33.6424 260.321 31.2211 259.941 28.9106 259.579C27.2401 259.317 25.6413 259.066 25.6055 257.912C25.5683 256.671 27.2312 256.344 28.9622 256.003C31.2541 255.552 33.6424 255.083 33.6424 252.595C33.6424 250.002 31.1963 249.612 28.8768 249.243C27.1982 248.974 25.6028 248.72 25.6048 247.575C25.6076 246.321 27.2739 245.999 28.9973 245.665C31.2796 245.223 33.6431 244.766 33.6431 242.273C33.6431 239.664 31.7269 239.587 29.7268 239.508C28.064 239.442 26.3233 239.374 26.3233 237.112H25.2868C25.2868 240.363 27.5368 240.451 29.6862 240.537C31.1777 240.596 32.6059 240.653 32.6059 242.273C32.6059 243.916 30.6718 244.291 28.8032 244.653C26.6544 245.068 24.5773 245.47 24.5724 247.575C24.5676 249.598 26.589 249.92 28.7144 250.259C30.6085 250.561 32.6059 250.879 32.6059 252.595C32.6059 254.235 30.6457 254.62 28.764 254.99C26.5925 255.417 24.5064 255.828 24.5724 257.942V257.944C24.6358 259.949 26.6489 260.265 28.7523 260.595C30.634 260.89 32.6066 261.199 32.6066 262.916H33.6424ZM86.4854 433.776C94.2958 420.459 99.7304 413.716 104.512 407.781C112.444 397.94 118.593 390.311 130.682 359.001C131.685 356.4 131.798 354.529 131.314 353.287C130.964 352.39 130.321 351.814 129.48 351.521C128.692 351.245 127.737 351.232 126.7 351.443C124.062 351.982 120.795 354.013 118.462 356.902C117.54 358.044 116.503 359.395 115.314 360.947C113.49 363.326 111.305 366.176 108.65 369.421L108.63 369.446L108.613 369.472C105.537 374.358 101.98 376.296 99.0132 376.217C97.8589 376.194 96.7358 375.838 95.7784 375.193C94.8423 374.56 94.0749 373.655 93.5518 372.542C92.2021 369.667 92.4864 365.42 95.6634 360.855L95.6875 360.821L95.6944 360.808C97.5989 357.298 99.7018 353.899 101.993 350.628C104.367 347.238 107.105 343.739 110.423 339.876C113.63 337.978 116.639 336.245 119.462 334.619C136.634 324.728 146.987 318.763 145.908 308.324L145.828 307.549L145.141 307.921C137.744 311.939 130.566 314.974 123.709 317.874C104.404 326.037 87.6279 333.131 75.1806 358.082H75.182C71.0318 366.13 68.6504 373.907 66.3922 381.277C62.5269 393.894 59.0298 405.31 47.5984 414.712L48.2591 415.513C59.9328 405.911 63.4739 394.353 67.3874 381.577C69.6325 374.249 72.0015 366.516 76.1112 358.547L76.1146 358.541C88.3891 333.937 105.001 326.912 124.116 318.829C130.772 316.014 137.728 313.073 144.928 309.215C145.327 318.52 135.292 324.301 118.939 333.721C116.072 335.373 113.013 337.135 109.818 339.025L109.745 339.069L109.688 339.135C106.329 343.042 103.554 346.589 101.14 350.035C98.8274 353.334 96.7048 356.762 94.7824 360.302C91.3914 365.196 91.1222 369.813 92.6103 372.982C93.2125 374.265 94.1038 375.313 95.1947 376.05C96.3173 376.808 97.6344 377.225 98.9884 377.254C102.284 377.34 106.181 375.272 109.478 370.052C112.149 366.785 114.325 363.946 116.142 361.577C117.33 360.027 118.365 358.677 119.274 357.552C121.458 354.848 124.482 352.954 126.908 352.459C127.765 352.285 128.532 352.289 129.138 352.5C129.413 352.591 129.664 352.742 129.873 352.943C130.081 353.144 130.242 353.39 130.342 353.661C130.739 354.676 130.613 356.293 129.711 358.63C117.684 389.782 111.578 397.358 103.701 407.131C98.8914 413.099 93.4252 419.881 85.5844 433.251L86.4861 433.776L86.4854 433.776Z" fill="white"/>
</svg>
