<svg width="25" height="24" viewBox="0 0 25 24" fill="none" xmlns="http://www.w3.org/2000/svg">
<g clip-path="url(#clip0_1_9)">
<path d="M18.1041 6H16.0926C16.0926 3.79 14.2922 2 12.0694 2C9.84666 2 8.04631 3.79 8.04631 6H6.03475C4.9284 6 4.02319 6.9 4.02319 8V20C4.02319 21.1 4.9284 22 6.03475 22H18.1041C19.2105 22 20.1157 21.1 20.1157 20V8C20.1157 6.9 19.2105 6 18.1041 6ZM10.0579 10C10.0579 10.55 9.60527 11 9.05209 11C8.49892 11 8.04631 10.55 8.04631 10V8H10.0579V10ZM12.0694 4C13.1758 4 14.081 4.9 14.081 6H10.0579C10.0579 4.9 10.9631 4 12.0694 4ZM16.0926 10C16.0926 10.55 15.64 11 15.0868 11C14.5336 11 14.081 10.55 14.081 10V8H16.0926V10Z" fill="white"/>
</g>
<defs>
<clipPath id="clip0_1_9">
<rect width="24.1387" height="24" fill="white"/>
</clipPath>
</defs>
</svg>
