<svg width="90" height="18" viewBox="0 0 90 18" fill="none" xmlns="http://www.w3.org/2000/svg">
<path d="M9 12.9525L13.635 15.75L12.405 10.4775L16.5 6.93L11.1075 6.4725L9 1.5L6.8925 6.4725L1.5 6.93L5.595 10.4775L4.365 15.75L9 12.9525Z" fill="#FFD200"/>
<path d="M27 12.9525L31.635 15.75L30.405 10.4775L34.5 6.93L29.1075 6.4725L27 1.5L24.8925 6.4725L19.5 6.93L23.595 10.4775L22.365 15.75L27 12.9525Z" fill="#FFD200"/>
<path d="M45 12.9525L49.635 15.75L48.405 10.4775L52.5 6.93L47.1075 6.4725L45 1.5L42.8925 6.4725L37.5 6.93L41.595 10.4775L40.365 15.75L45 12.9525Z" fill="#FFD200"/>
<path d="M63 12.9525L67.635 15.75L66.405 10.4775L70.5 6.93L65.1075 6.4725L63 1.5L60.8925 6.4725L55.5 6.93L59.595 10.4775L58.365 15.75L63 12.9525Z" fill="#FFD200"/>
<path d="M88.5 6.93L83.1075 6.465L81 1.5L78.8925 6.4725L73.5 6.93L77.595 10.4775L76.365 15.75L81 12.9525L85.635 15.75L84.4125 10.4775L88.5 6.93ZM81 11.55V4.575L82.2825 7.605L85.5675 7.89L83.0775 10.05L83.8275 13.26L81 11.55Z" fill="#FFD200"/>
</svg>
