<svg width="124" height="60" viewBox="0 0 124 60" fill="none" xmlns="http://www.w3.org/2000/svg">
<rect width="124" height="60" rx="6" fill="white"/>
<path d="M31.6922 35L28.2732 29.241L31.5102 25.939H30.2882L25.3352 31.087V25.939H24.4122V35H25.3352V32.257L27.6362 29.891L30.6262 35H31.6922ZM38.0073 31.477C38.0073 30.021 37.1883 28.487 35.2253 28.487C33.3663 28.487 32.3783 30.021 32.3783 31.828C32.3783 33.648 33.3793 35.104 35.3293 35.104C36.3173 35.104 37.0583 34.818 37.8123 34.025L37.1883 33.479C36.6033 34.103 36.0443 34.285 35.3423 34.285C34.0813 34.285 33.3013 33.44 33.2753 32.036H37.9683C37.9943 31.88 38.0073 31.659 38.0073 31.477ZM35.2253 29.241C36.4083 29.241 37.0713 30.034 37.1363 31.074C37.1363 31.191 37.1493 31.256 37.1493 31.282H33.2753C33.3533 30.151 34.0683 29.241 35.2253 29.241ZM40.9873 35.104C41.2733 35.104 41.5983 35.026 41.8713 34.935L41.8583 34.168C41.6633 34.233 41.4423 34.285 41.2473 34.285C40.8183 34.285 40.6623 33.999 40.6623 33.557V25.939H39.7653V33.609C39.7653 34.61 40.2463 35.104 40.9873 35.104ZM43.2432 27.265H44.2832V25.939H43.2432V27.265ZM43.3212 35H44.2182V28.591H43.3212V35ZM49.5999 28.487C48.6769 28.487 47.8969 28.877 47.4809 29.527V28.591H46.5839V35H47.4809V32.127C47.4809 30.32 48.1829 29.28 49.3919 29.28C50.3539 29.28 50.7959 29.917 50.7959 31.295V35H51.6929V31.074C51.6929 29.371 50.9779 28.487 49.5999 28.487ZM56.1191 34.22C55.1961 34.077 54.3901 33.921 54.3901 33.271C54.3901 32.998 54.5461 32.764 54.8061 32.621C55.1831 32.829 55.6381 32.946 56.1321 32.946C57.4841 32.946 58.5501 32.075 58.5501 30.762C58.5501 30.307 58.4201 29.904 58.1991 29.553L59.0701 28.825L58.6021 28.24L57.7181 29.007C57.3021 28.682 56.7431 28.487 56.1191 28.487C54.7411 28.487 53.6751 29.41 53.6751 30.71C53.6751 31.282 53.8831 31.776 54.2211 32.166C53.7661 32.478 53.5321 32.868 53.5321 33.388C53.5321 34.025 53.8701 34.389 54.3641 34.61L53.3241 35.494C53.3111 35.572 53.2981 35.65 53.2981 35.78C53.2981 37.054 54.3771 37.756 56.1581 37.756C57.7701 37.756 58.9011 37.197 58.9011 35.988C58.9011 34.597 57.3931 34.415 56.1191 34.22ZM56.1321 29.241C57.0551 29.241 57.6531 29.852 57.6531 30.736C57.6531 31.581 57.0811 32.205 56.1191 32.205C55.1571 32.205 54.5591 31.568 54.5591 30.736C54.5591 29.852 55.2221 29.241 56.1321 29.241ZM56.1971 37.002C55.1051 37.002 54.1821 36.716 54.1821 35.806C54.1821 35.78 54.1821 35.754 54.1951 35.689L55.0661 34.844C55.3391 34.909 55.6381 34.961 55.9241 35C56.9901 35.169 58.0041 35.286 58.0041 36.066C58.0041 36.69 57.3281 37.002 56.1971 37.002ZM65.5435 31.477C65.5435 30.021 64.7245 28.487 62.7615 28.487C60.9025 28.487 59.9145 30.021 59.9145 31.828C59.9145 33.648 60.9155 35.104 62.8655 35.104C63.8535 35.104 64.5945 34.818 65.3485 34.025L64.7245 33.479C64.1395 34.103 63.5805 34.285 62.8785 34.285C61.6175 34.285 60.8375 33.44 60.8115 32.036H65.5045C65.5305 31.88 65.5435 31.659 65.5435 31.477ZM62.7615 29.241C63.9445 29.241 64.6075 30.034 64.6725 31.074C64.6725 31.191 64.6855 31.256 64.6855 31.282H60.8115C60.8895 30.151 61.6045 29.241 62.7615 29.241ZM73.9241 28.474C73.0141 28.474 72.2861 28.825 71.8051 29.449V25.939H70.9081V35H71.8051V34.142C72.2731 34.74 72.9881 35.104 73.9241 35.104C75.7961 35.104 76.7711 33.7 76.7711 31.789C76.7711 29.787 75.7051 28.474 73.9241 28.474ZM73.7941 34.311C72.4421 34.311 71.7271 33.245 71.7271 31.789C71.7271 30.268 72.5071 29.267 73.7941 29.267C75.0941 29.267 75.8741 30.268 75.8741 31.789C75.8741 33.245 75.1591 34.311 73.7941 34.311ZM83.7358 31.477C83.7358 30.021 82.9168 28.487 80.9538 28.487C79.0948 28.487 78.1068 30.021 78.1068 31.828C78.1068 33.648 79.1078 35.104 81.0578 35.104C82.0458 35.104 82.7868 34.818 83.5408 34.025L82.9168 33.479C82.3318 34.103 81.7728 34.285 81.0708 34.285C79.8098 34.285 79.0298 33.44 79.0038 32.036H83.6968C83.7228 31.88 83.7358 31.659 83.7358 31.477ZM80.9538 29.241C82.1368 29.241 82.7998 30.034 82.8648 31.074C82.8648 31.191 82.8778 31.256 82.8778 31.282H79.0038C79.0818 30.151 79.7968 29.241 80.9538 29.241ZM85.4678 27.265H86.5078V25.939H85.4678V27.265ZM85.5458 35H86.4428V28.591H85.5458V35ZM91.0185 34.22C90.0955 34.077 89.2895 33.921 89.2895 33.271C89.2895 32.998 89.4455 32.764 89.7055 32.621C90.0825 32.829 90.5375 32.946 91.0315 32.946C92.3835 32.946 93.4495 32.075 93.4495 30.762C93.4495 30.307 93.3195 29.904 93.0985 29.553L93.9695 28.825L93.5015 28.24L92.6175 29.007C92.2015 28.682 91.6425 28.487 91.0185 28.487C89.6405 28.487 88.5745 29.41 88.5745 30.71C88.5745 31.282 88.7825 31.776 89.1205 32.166C88.6655 32.478 88.4315 32.868 88.4315 33.388C88.4315 34.025 88.7695 34.389 89.2635 34.61L88.2235 35.494C88.2105 35.572 88.1975 35.65 88.1975 35.78C88.1975 37.054 89.2765 37.756 91.0575 37.756C92.6695 37.756 93.8005 37.197 93.8005 35.988C93.8005 34.597 92.2925 34.415 91.0185 34.22ZM91.0315 29.241C91.9545 29.241 92.5525 29.852 92.5525 30.736C92.5525 31.581 91.9805 32.205 91.0185 32.205C90.0565 32.205 89.4585 31.568 89.4585 30.736C89.4585 29.852 90.1215 29.241 91.0315 29.241ZM91.0965 37.002C90.0045 37.002 89.0815 36.716 89.0815 35.806C89.0815 35.78 89.0815 35.754 89.0945 35.689L89.9655 34.844C90.2385 34.909 90.5375 34.961 90.8235 35C91.8895 35.169 92.9035 35.286 92.9035 36.066C92.9035 36.69 92.2275 37.002 91.0965 37.002ZM100.443 31.477C100.443 30.021 99.6239 28.487 97.6609 28.487C95.8019 28.487 94.8139 30.021 94.8139 31.828C94.8139 33.648 95.8149 35.104 97.7649 35.104C98.7529 35.104 99.4939 34.818 100.248 34.025L99.6239 33.479C99.0389 34.103 98.4799 34.285 97.7779 34.285C96.5169 34.285 95.7369 33.44 95.7109 32.036H100.404C100.43 31.88 100.443 31.659 100.443 31.477ZM97.6609 29.241C98.8439 29.241 99.5069 30.034 99.5719 31.074C99.5719 31.191 99.5849 31.256 99.5849 31.282H95.7109C95.7889 30.151 96.5039 29.241 97.6609 29.241Z" fill="#545C5F"/>
</svg>
