<svg width="124" height="60" viewBox="0 0 124 60" fill="none" xmlns="http://www.w3.org/2000/svg">
<rect width="124" height="60" rx="6" fill="white"/>
<path d="M53.6732 31.074H55.8572V31.36C55.8572 33.427 54.4922 34.246 52.9322 34.246C50.6832 34.246 49.7342 32.569 49.7342 30.411C49.7342 28.175 50.8132 26.693 52.9972 26.693C54.5052 26.693 55.4152 27.382 55.8702 28.617L56.7282 28.292C56.1302 26.732 54.9082 25.809 52.9972 25.809C50.2152 25.809 48.8112 27.759 48.8112 30.45C48.8112 33.154 50.2282 35.13 52.8672 35.13C54.2582 35.13 55.3632 34.584 55.8572 33.583L55.9872 35H56.7282V30.32H53.6732V31.074ZM61.8584 28.487C61.2084 28.487 60.4284 28.708 59.9604 29.553V28.591H59.0634V35H59.9604V31.425C59.9604 30.034 60.6884 29.293 61.6764 29.293C61.9494 29.293 62.2224 29.358 62.5214 29.488L62.9634 28.76C62.6124 28.565 62.2484 28.487 61.8584 28.487ZM68.8189 31.477C68.8189 30.021 67.9999 28.487 66.0369 28.487C64.1779 28.487 63.1899 30.021 63.1899 31.828C63.1899 33.648 64.1909 35.104 66.1409 35.104C67.1289 35.104 67.8699 34.818 68.6239 34.025L67.9999 33.479C67.4149 34.103 66.8559 34.285 66.1539 34.285C64.8929 34.285 64.1129 33.44 64.0869 32.036H68.7799C68.8059 31.88 68.8189 31.659 68.8189 31.477ZM66.0369 29.241C67.2199 29.241 67.8829 30.034 67.9479 31.074C67.9479 31.191 67.9609 31.256 67.9609 31.282H64.0869C64.1649 30.151 64.8799 29.241 66.0369 29.241ZM71.3308 37.652H72.2928L75.8028 28.591H74.8148L72.8778 33.869L70.6678 28.591H69.6798L72.3968 34.922L71.3308 37.652Z" fill="#545C5F"/>
</svg>
