<svg width="124" height="60" viewBox="0 0 124 60" fill="none" xmlns="http://www.w3.org/2000/svg">
<rect x="2" y="2" width="120" height="16" fill="#DE742D"/>
<path d="M36.0179 6.03V11.13L32.9179 6.03H31.8079V13H32.8779V7.87L35.9679 13H37.0879V6.03H36.0179ZM39.0247 13H43.6347V12.01H40.0947V9.92H43.3447V8.93H40.0947V7.02H43.6347V6.03H39.0247V13ZM46.5066 13H47.5566L49.1566 8.12L50.7566 13H51.8066L53.8766 6.03H52.7566L51.2266 11.37L49.6166 6.42H48.6966L47.0966 11.37L45.5566 6.03H44.4366L46.5066 13ZM60.4191 13.13C61.8791 13.13 62.9691 12.42 63.4791 11.1L62.4691 10.72C62.1391 11.64 61.4291 12.11 60.4191 12.11C59.0091 12.11 58.1791 11.17 58.1791 9.5C58.1791 7.84 59.0091 6.91 60.4391 6.91C61.4391 6.91 62.1391 7.36 62.4691 8.27L63.4591 7.89C62.9491 6.58 61.8891 5.89 60.4391 5.89C58.3991 5.89 57.1091 7.27 57.1091 9.51C57.1091 11.74 58.3891 13.13 60.4191 13.13ZM67.479 13.13C69.429 13.13 70.759 11.69 70.759 9.52C70.759 7.34 69.439 5.9 67.479 5.9C65.519 5.9 64.189 7.34 64.189 9.52C64.189 11.69 65.519 13.13 67.479 13.13ZM67.479 12.11C66.129 12.11 65.259 11.12 65.259 9.52C65.259 7.91 66.129 6.92 67.479 6.92C68.829 6.92 69.689 7.92 69.689 9.52C69.689 11.11 68.829 12.11 67.479 12.11ZM72.2083 13H76.3183V12.01H73.2783V6.03H72.2083V13ZM79.9985 13.13C81.9485 13.13 83.2785 11.69 83.2785 9.52C83.2785 7.34 81.9585 5.9 79.9985 5.9C78.0385 5.9 76.7085 7.34 76.7085 9.52C76.7085 11.69 78.0385 13.13 79.9985 13.13ZM79.9985 12.11C78.6485 12.11 77.7785 11.12 77.7785 9.52C77.7785 7.91 78.6485 6.92 79.9985 6.92C81.3485 6.92 82.2085 7.92 82.2085 9.52C82.2085 11.11 81.3485 12.11 79.9985 12.11ZM89.8078 13L87.9178 9.91C88.7878 9.65 89.2578 9 89.2578 8.01C89.2578 6.76 88.5178 6.03 86.9078 6.03H84.7278V13H85.7878V10.04H86.4178H86.8578L88.5578 13H89.8078ZM85.7878 9.06V7.02H86.7978C87.7078 7.02 88.1778 7.29 88.1778 8.03C88.1778 8.77 87.7078 9.06 86.7978 9.06H85.7878ZM91.1976 10.94H91.9776L92.0976 6.03H91.0776L91.1976 10.94ZM90.9976 13H92.1676V11.77H90.9976V13Z" fill="white"/>
<path d="M25.5509 24.939V31.569L21.5209 24.939H20.0779V34H21.4689V27.331L25.4859 34H26.9419V24.939H25.5509ZM31.7743 34.117C33.6983 34.117 34.9333 32.622 34.9333 30.789C34.9333 28.943 33.6983 27.474 31.7743 27.474C29.8373 27.474 28.6023 28.943 28.6023 30.789C28.6023 32.622 29.8373 34.117 31.7743 34.117ZM31.7743 32.947C30.5263 32.947 29.9413 31.972 29.9413 30.789C29.9413 29.606 30.5263 28.644 31.7743 28.644C33.0093 28.644 33.5943 29.606 33.5943 30.789C33.5943 31.959 33.0223 32.947 31.7743 32.947ZM39.4926 27.474C38.7906 27.474 38.0496 27.838 37.7246 28.644V27.591H36.3726V34H37.7116V30.659C37.7116 29.385 38.2706 28.748 39.2326 28.748C39.5316 28.748 39.7786 28.826 40.0256 28.969L40.6756 27.799C40.2856 27.565 39.9086 27.474 39.4926 27.474ZM45.4209 24.939V28.306C45.0179 27.786 44.2769 27.461 43.4839 27.461C41.8459 27.461 40.7409 28.722 40.7409 30.789C40.7409 32.713 41.7029 34.117 43.4839 34.117C44.2509 34.117 44.9789 33.857 45.4209 33.285V34H46.7599V24.939H45.4209ZM43.7829 32.895C42.6389 32.895 42.0799 32.076 42.0799 30.802C42.0799 29.489 42.6649 28.67 43.7959 28.67C44.9659 28.67 45.5509 29.58 45.5509 30.802C45.5509 31.998 44.9919 32.895 43.7829 32.895ZM50.4269 34H51.5449L54.1579 27.591H52.7019L50.9859 32.271L49.2829 27.591H47.8139L50.4269 34ZM57.5663 27.474C56.4223 27.474 55.5123 27.916 54.7713 28.826L55.7463 29.645C56.2273 28.982 56.8513 28.644 57.5533 28.644C58.3983 28.644 58.9053 29.138 58.9053 29.97V30.191H57.4103C56.5003 30.191 55.9023 30.295 55.4603 30.516C54.8883 30.802 54.5763 31.348 54.5763 32.076C54.5763 33.298 55.4863 34.117 56.8513 34.117C57.7613 34.117 58.5023 33.74 58.9183 33.09L59.0223 34H60.2443V29.97C60.2443 28.41 59.2303 27.474 57.5663 27.474ZM57.0983 32.986C56.3703 32.986 55.9153 32.648 55.9153 32.102C55.9153 31.829 56.0063 31.608 56.2013 31.478C56.4483 31.283 56.8253 31.218 57.5663 31.218H58.9053V31.244C58.9053 32.258 58.1383 32.986 57.0983 32.986ZM63.4199 34.117C63.7189 34.117 64.0569 34.052 64.3819 33.935V32.843C64.1869 32.908 64.0049 32.934 63.8489 32.934C63.5109 32.934 63.3419 32.765 63.3419 32.427V24.939H62.0029V32.518C62.0029 33.61 62.5879 34.117 63.4199 34.117ZM67 34.117C67.299 34.117 67.637 34.052 67.962 33.935V32.843C67.767 32.908 67.585 32.934 67.429 32.934C67.091 32.934 66.922 32.765 66.922 32.427V24.939H65.583V32.518C65.583 33.61 66.168 34.117 67 34.117ZM71.5947 27.474C70.4507 27.474 69.5407 27.916 68.7997 28.826L69.7747 29.645C70.2557 28.982 70.8797 28.644 71.5817 28.644C72.4267 28.644 72.9337 29.138 72.9337 29.97V30.191H71.4387C70.5287 30.191 69.9307 30.295 69.4887 30.516C68.9167 30.802 68.6047 31.348 68.6047 32.076C68.6047 33.298 69.5147 34.117 70.8797 34.117C71.7897 34.117 72.5307 33.74 72.9467 33.09L73.0507 34H74.2727V29.97C74.2727 28.41 73.2587 27.474 71.5947 27.474ZM71.1267 32.986C70.3987 32.986 69.9437 32.648 69.9437 32.102C69.9437 31.829 70.0347 31.608 70.2297 31.478C70.4767 31.283 70.8537 31.218 71.5947 31.218H72.9337V31.244C72.9337 32.258 72.1667 32.986 71.1267 32.986ZM83.5703 24.939V28.306C83.1673 27.786 82.4263 27.461 81.6333 27.461C79.9953 27.461 78.8903 28.722 78.8903 30.789C78.8903 32.713 79.8523 34.117 81.6333 34.117C82.4003 34.117 83.1283 33.857 83.5703 33.285V34H84.9093V24.939H83.5703ZM81.9323 32.895C80.7883 32.895 80.2293 32.076 80.2293 30.802C80.2293 29.489 80.8143 28.67 81.9453 28.67C83.1153 28.67 83.7003 29.58 83.7003 30.802C83.7003 31.998 83.1413 32.895 81.9323 32.895ZM89.2919 27.474C88.1479 27.474 87.2379 27.916 86.4969 28.826L87.4719 29.645C87.9529 28.982 88.5769 28.644 89.2789 28.644C90.1239 28.644 90.6309 29.138 90.6309 29.97V30.191H89.1359C88.2259 30.191 87.6279 30.295 87.1859 30.516C86.6139 30.802 86.3019 31.348 86.3019 32.076C86.3019 33.298 87.2119 34.117 88.5769 34.117C89.4869 34.117 90.2279 33.74 90.6439 33.09L90.7479 34H91.9699V29.97C91.9699 28.41 90.9559 27.474 89.2919 27.474ZM88.8239 32.986C88.0959 32.986 87.6409 32.648 87.6409 32.102C87.6409 31.829 87.7319 31.608 87.9269 31.478C88.1739 31.283 88.5509 31.218 89.2919 31.218H90.6309V31.244C90.6309 32.258 89.8639 32.986 88.8239 32.986ZM96.9135 27.474C96.2115 27.474 95.4705 27.838 95.1455 28.644V27.591H93.7935V34H95.1325V30.659C95.1325 29.385 95.6915 28.748 96.6535 28.748C96.9525 28.748 97.1995 28.826 97.4465 28.969L98.0965 27.799C97.7065 27.565 97.3295 27.474 96.9135 27.474ZM99.0877 34H100.427V32.128L101.571 30.88L103.56 34H105.159L102.481 30.048L104.86 27.591H103.053L100.427 30.451V24.939H99.0877V34ZM52.9005 49.09C52.0555 48.973 51.3535 48.83 51.3535 48.31C51.3535 48.115 51.4445 47.972 51.6135 47.868C51.9905 48.037 52.4065 48.141 52.8745 48.141C54.2655 48.141 55.4095 47.244 55.4095 45.853C55.4095 45.424 55.3055 45.034 55.1105 44.696L56.0205 43.955L55.3185 43.097L54.3695 43.916C53.9405 43.63 53.4075 43.474 52.8355 43.474C51.4185 43.474 50.2745 44.423 50.2745 45.775C50.2745 46.334 50.4695 46.841 50.8075 47.244C50.3915 47.556 50.1705 47.959 50.1705 48.505C50.1705 49.168 50.4955 49.558 50.9635 49.805L50.0015 50.481C49.9885 50.546 49.9755 50.611 49.9755 50.767C49.9755 52.067 51.0545 52.769 52.9265 52.769C54.6165 52.769 55.8125 52.21 55.8125 50.91C55.8125 49.428 54.1875 49.272 52.9005 49.09ZM52.8615 44.592C53.6025 44.592 54.0705 45.073 54.0705 45.814C54.0705 46.516 53.6545 47.036 52.8485 47.036C52.0425 47.036 51.6005 46.503 51.6005 45.814C51.6005 45.086 52.1075 44.592 52.8615 44.592ZM52.9785 51.742C52.1335 51.742 51.3015 51.534 51.3015 50.871C51.3015 50.845 51.3015 50.806 51.3145 50.754L51.9645 50.117C52.1855 50.156 52.4065 50.195 52.6145 50.221C53.5895 50.364 54.4735 50.442 54.4735 51.027C54.4735 51.534 53.7975 51.742 52.9785 51.742ZM60.3446 43.474C59.6426 43.474 58.9016 43.838 58.5766 44.644V43.591H57.2246V50H58.5636V46.659C58.5636 45.385 59.1226 44.748 60.0846 44.748C60.3836 44.748 60.6306 44.826 60.8776 44.969L61.5276 43.799C61.1376 43.565 60.7606 43.474 60.3446 43.474ZM67.4299 46.633C67.4299 44.956 66.5199 43.474 64.5309 43.474C62.4899 43.474 61.5539 45.112 61.5539 46.828C61.5539 48.583 62.5159 50.117 64.6349 50.117C65.6879 50.117 66.4939 49.779 67.2219 48.986L66.2859 48.18C65.8049 48.726 65.2719 48.908 64.6479 48.908C63.5559 48.908 62.9449 48.245 62.8929 47.218H67.3909C67.4169 47.023 67.4299 46.828 67.4299 46.633ZM62.8929 46.139C62.9839 45.346 63.5039 44.592 64.5309 44.592C65.4799 44.592 66.1169 45.203 66.1429 46.113V46.139H62.8929ZM69.3856 52.652H70.8286L74.4296 43.591H72.9606L71.2186 48.31L69.3986 43.591H67.9296L70.5036 49.857L69.3856 52.652Z" fill="#202324"/>
</svg>
