<svg width="124" height="60" viewBox="0 0 124 60" fill="none" xmlns="http://www.w3.org/2000/svg">
<rect width="124" height="60" rx="6" fill="white"/>
<path d="M21.2558 17.939L18.3178 25.557L15.3798 17.939H14.3528L17.9408 27H18.6948L22.2698 17.939H21.2558ZM23.8384 19.265H24.8784V17.939H23.8384V19.265ZM23.9164 27H24.8134V20.591H23.9164V27ZM30.1951 20.474C29.2851 20.474 28.5571 20.825 28.0761 21.449V17.939H27.1791V27H28.0761V26.142C28.5441 26.74 29.2591 27.104 30.1951 27.104C32.0671 27.104 33.0421 25.7 33.0421 23.789C33.0421 21.787 31.9761 20.474 30.1951 20.474ZM30.0651 26.311C28.7131 26.311 27.9981 25.245 27.9981 23.789C27.9981 22.268 28.7781 21.267 30.0651 21.267C31.3651 21.267 32.1451 22.268 32.1451 23.789C32.1451 25.245 31.4301 26.311 30.0651 26.311ZM37.9138 20.474C37.0038 20.474 36.2758 20.825 35.7948 21.449V17.939H34.8978V27H35.7948V26.142C36.2628 26.74 36.9778 27.104 37.9138 27.104C39.7858 27.104 40.7608 25.7 40.7608 23.789C40.7608 21.787 39.6948 20.474 37.9138 20.474ZM37.7838 26.311C36.4318 26.311 35.7168 25.245 35.7168 23.789C35.7168 22.268 36.4968 21.267 37.7838 21.267C39.0838 21.267 39.8638 22.268 39.8638 23.789C39.8638 25.245 39.1488 26.311 37.7838 26.311ZM47.7256 23.477C47.7256 22.021 46.9066 20.487 44.9436 20.487C43.0846 20.487 42.0966 22.021 42.0966 23.828C42.0966 25.648 43.0976 27.104 45.0476 27.104C46.0356 27.104 46.7766 26.818 47.5306 26.025L46.9066 25.479C46.3216 26.103 45.7626 26.285 45.0606 26.285C43.7996 26.285 43.0196 25.44 42.9936 24.036H47.6866C47.7126 23.88 47.7256 23.659 47.7256 23.477ZM44.9436 21.241C46.1266 21.241 46.7896 22.034 46.8546 23.074C46.8546 23.191 46.8676 23.256 46.8676 23.282H42.9936C43.0716 22.151 43.7866 21.241 44.9436 21.241ZM52.3305 20.487C51.6805 20.487 50.9005 20.708 50.4325 21.553V20.591H49.5355V27H50.4325V23.425C50.4325 22.034 51.1605 21.293 52.1485 21.293C52.4215 21.293 52.6945 21.358 52.9935 21.488L53.4355 20.76C53.0845 20.565 52.7205 20.487 52.3305 20.487ZM57.782 20.474C56.872 20.474 56.144 20.825 55.663 21.449V17.939H54.766V27H55.663V26.142C56.131 26.74 56.846 27.104 57.782 27.104C59.654 27.104 60.629 25.7 60.629 23.789C60.629 21.787 59.563 20.474 57.782 20.474ZM57.652 26.311C56.3 26.311 55.585 25.245 55.585 23.789C55.585 22.268 56.365 21.267 57.652 21.267C58.952 21.267 59.732 22.268 59.732 23.789C59.732 25.245 59.017 26.311 57.652 26.311ZM64.9938 27.104C66.8268 27.104 68.0748 25.674 68.0748 23.789C68.0748 21.891 66.8138 20.487 64.9938 20.487C63.1608 20.487 61.9258 21.891 61.9258 23.789C61.9258 25.687 63.1608 27.104 64.9938 27.104ZM64.9938 26.311C63.6288 26.311 62.8228 25.245 62.8228 23.789C62.8228 22.346 63.6158 21.28 64.9938 21.28C66.3588 21.28 67.1778 22.333 67.1778 23.789C67.1778 25.219 66.3718 26.311 64.9938 26.311ZM76.4568 20.474C75.5468 20.474 74.8188 20.825 74.3378 21.449V17.939H73.4408V27H74.3378V26.142C74.8058 26.74 75.5208 27.104 76.4568 27.104C78.3288 27.104 79.3038 25.7 79.3038 23.789C79.3038 21.787 78.2378 20.474 76.4568 20.474ZM76.3268 26.311C74.9748 26.311 74.2598 25.245 74.2598 23.789C74.2598 22.268 75.0398 21.267 76.3268 21.267C77.6268 21.267 78.4068 22.268 78.4068 23.789C78.4068 25.245 77.6918 26.311 76.3268 26.311ZM82.3296 27.104C82.6156 27.104 82.9406 27.026 83.2136 26.935L83.2006 26.168C83.0056 26.233 82.7846 26.285 82.5896 26.285C82.1606 26.285 82.0046 25.999 82.0046 25.557V17.939H81.1076V25.609C81.1076 26.61 81.5886 27.104 82.3296 27.104ZM86.8865 20.487C85.7945 20.487 84.9625 20.903 84.2735 21.8L84.9235 22.346C85.4435 21.631 86.0675 21.28 86.8735 21.28C87.9525 21.28 88.5375 21.891 88.5375 23.009V23.308H87.2245C85.9635 23.308 85.2745 23.425 84.7805 23.711C84.3125 23.997 84.0525 24.491 84.0525 25.141C84.0525 26.376 84.8715 27.104 86.2625 27.104C87.2765 27.104 88.0565 26.727 88.5635 26.012L88.6155 27H89.4345V23.009C89.4345 21.41 88.4985 20.487 86.8865 20.487ZM86.5225 26.363C85.5605 26.363 84.9495 25.908 84.9495 25.193C84.9495 24.829 85.0665 24.543 85.3005 24.361C85.6125 24.114 86.1195 24.036 87.3025 24.036H88.5375V24.127C88.5375 25.492 87.7575 26.363 86.5225 26.363ZM93.9865 27.104C95.1435 27.104 96.0795 26.493 96.5085 25.323L95.6765 25.011C95.4295 25.83 94.7925 26.311 93.9865 26.311C92.6085 26.311 91.9975 25.128 91.9975 23.815C91.9975 22.502 92.6085 21.28 93.9735 21.28C94.7795 21.28 95.4165 21.774 95.7155 22.593L96.5735 22.255C96.0665 21.059 95.1175 20.487 93.9735 20.487C92.0365 20.487 91.0875 22.125 91.0875 23.815C91.0875 25.596 92.1275 27.104 93.9865 27.104ZM98.2221 27H99.1191V25.115L100.588 23.555L102.824 27H103.89L101.199 22.996L103.526 20.591H102.317L99.1191 23.984V17.939H98.2221V27ZM104.494 29.743H105.339L109.993 17.939H109.135L104.494 29.743ZM50.5266 36.474C49.6166 36.474 48.8886 36.825 48.4076 37.449V33.939H47.5106V43H48.4076V42.142C48.8756 42.74 49.5906 43.104 50.5266 43.104C52.3986 43.104 53.3736 41.7 53.3736 39.789C53.3736 37.787 52.3076 36.474 50.5266 36.474ZM50.3966 42.311C49.0446 42.311 48.3296 41.245 48.3296 39.789C48.3296 38.268 49.1096 37.267 50.3966 37.267C51.6966 37.267 52.4766 38.268 52.4766 39.789C52.4766 41.245 51.7616 42.311 50.3966 42.311ZM60.3384 39.477C60.3384 38.021 59.5194 36.487 57.5564 36.487C55.6974 36.487 54.7094 38.021 54.7094 39.828C54.7094 41.648 55.7104 43.104 57.6604 43.104C58.6484 43.104 59.3894 42.818 60.1434 42.025L59.5194 41.479C58.9344 42.103 58.3754 42.285 57.6734 42.285C56.4124 42.285 55.6324 41.44 55.6064 40.036H60.2994C60.3254 39.88 60.3384 39.659 60.3384 39.477ZM57.5564 37.241C58.7394 37.241 59.4024 38.034 59.4674 39.074C59.4674 39.191 59.4804 39.256 59.4804 39.282H55.6064C55.6844 38.151 56.3994 37.241 57.5564 37.241ZM62.0703 35.265H63.1103V33.939H62.0703V35.265ZM62.1483 43H63.0453V36.591H62.1483V43ZM67.621 42.22C66.698 42.077 65.892 41.921 65.892 41.271C65.892 40.998 66.048 40.764 66.308 40.621C66.685 40.829 67.14 40.946 67.634 40.946C68.986 40.946 70.052 40.075 70.052 38.762C70.052 38.307 69.922 37.904 69.701 37.553L70.572 36.825L70.104 36.24L69.22 37.007C68.804 36.682 68.245 36.487 67.621 36.487C66.243 36.487 65.177 37.41 65.177 38.71C65.177 39.282 65.385 39.776 65.723 40.166C65.268 40.478 65.034 40.868 65.034 41.388C65.034 42.025 65.372 42.389 65.866 42.61L64.826 43.494C64.813 43.572 64.8 43.65 64.8 43.78C64.8 45.054 65.879 45.756 67.66 45.756C69.272 45.756 70.403 45.197 70.403 43.988C70.403 42.597 68.895 42.415 67.621 42.22ZM67.634 37.241C68.557 37.241 69.155 37.852 69.155 38.736C69.155 39.581 68.583 40.205 67.621 40.205C66.659 40.205 66.061 39.568 66.061 38.736C66.061 37.852 66.724 37.241 67.634 37.241ZM67.699 45.002C66.607 45.002 65.684 44.716 65.684 43.806C65.684 43.78 65.684 43.754 65.697 43.689L66.568 42.844C66.841 42.909 67.14 42.961 67.426 43C68.492 43.169 69.506 43.286 69.506 44.066C69.506 44.69 68.83 45.002 67.699 45.002ZM77.0454 39.477C77.0454 38.021 76.2264 36.487 74.2634 36.487C72.4044 36.487 71.4164 38.021 71.4164 39.828C71.4164 41.648 72.4174 43.104 74.3674 43.104C75.3554 43.104 76.0964 42.818 76.8504 42.025L76.2264 41.479C75.6414 42.103 75.0824 42.285 74.3804 42.285C73.1194 42.285 72.3394 41.44 72.3134 40.036H77.0064C77.0324 39.88 77.0454 39.659 77.0454 39.477ZM74.2634 37.241C75.4464 37.241 76.1094 38.034 76.1744 39.074C76.1744 39.191 76.1874 39.256 76.1874 39.282H72.3134C72.3914 38.151 73.1064 37.241 74.2634 37.241Z" fill="#545C5F"/>
</svg>
