<svg width="124" height="60" viewBox="0 0 124 60" fill="none" xmlns="http://www.w3.org/2000/svg">
<path d="M1 5C1 2.79086 2.79086 1 5 1H119C121.209 1 123 2.79086 123 5V18H1V5Z" fill="#A07EDC"/>
<path d="M19.9583 13H24.0683V12.01H21.0283V6.03H19.9583V13ZM25.222 13H26.292V6.03H25.222V13ZM33.67 6.03L31.71 11.17L29.76 6.03H28.22V13H29.29V7.51L31.19 12.4H32.23L34.14 7.51V13H35.21V6.03H33.67ZM37.1458 13H38.2158V6.03H37.1458V13ZM41.5938 13H42.6738V7.02H44.9338V6.03H39.3438V7.02H41.5938V13ZM46.0716 13H50.6816V12.01H47.1416V9.92H50.3916V8.93H47.1416V7.02H50.6816V6.03H46.0716V13ZM52.2434 13H54.2034C56.5534 13 57.8234 11.79 57.8234 9.57C57.8234 7.31 56.5134 6.03 54.2134 6.03H52.2434V13ZM53.3134 12.01V7.02H54.2034C55.9334 7.02 56.7434 7.82 56.7434 9.53C56.7434 11.25 55.9334 12.01 54.1034 12.01H53.3134ZM66.8742 13L64.9842 9.91C65.8542 9.65 66.3242 9 66.3242 8.01C66.3242 6.76 65.5842 6.03 63.9742 6.03H61.7942V13H62.8542V10.04H63.4842H63.9242L65.6242 13H66.8742ZM62.8542 9.06V7.02H63.8642C64.7742 7.02 65.2442 7.29 65.2442 8.03C65.2442 8.77 64.7742 9.06 63.8642 9.06H62.8542ZM68.054 13H72.664V12.01H69.124V9.92H72.374V8.93H69.124V7.02H72.664V6.03H68.054V13ZM74.2259 13H78.3359V12.01H75.2959V6.03H74.2259V13ZM79.4895 13H84.0995V12.01H80.5595V9.92H83.8095V8.93H80.5595V7.02H84.0995V6.03H79.4895V13ZM89.9414 13H91.1114L88.3914 6.03H87.5614L84.8414 13H86.0014L86.5814 11.42H89.3714L89.9414 13ZM86.9314 10.45L87.9814 7.59L89.0214 10.45H86.9314ZM94.1051 13.12C95.5351 13.12 96.4651 12.3 96.4651 11.04C96.4651 10.06 95.9951 9.52 94.4851 8.94C93.4151 8.53 93.0351 8.24 93.0351 7.72C93.0351 7.24 93.4551 6.85 94.0351 6.85C94.5451 6.85 94.9951 7.14 95.2551 7.67L96.1451 7.12C95.7151 6.31 94.9851 5.9 94.0651 5.9C92.8051 5.9 91.9651 6.64 91.9651 7.75C91.9651 8.73 92.4751 9.25 93.9151 9.8C95.0151 10.23 95.3951 10.56 95.3951 11.13C95.3951 11.76 94.9251 12.17 94.1251 12.17C93.2651 12.17 92.6751 11.66 92.5751 10.81L91.5051 11.07C91.7051 12.31 92.7451 13.12 94.1051 13.12ZM97.8098 13H102.42V12.01H98.8798V9.92H102.13V8.93H98.8798V7.02H102.42V6.03H97.8098V13Z" fill="white"/>
<path d="M47.4923 42H50.5473C52.4063 42 53.4463 41.09 53.4463 39.465C53.4463 38.256 52.8613 37.45 51.7823 37.177C52.5493 36.852 52.9783 36.137 52.9783 35.201C52.9783 33.771 51.9773 32.939 50.2743 32.939H47.4923V42ZM48.4153 36.891V33.797H50.2743C51.4053 33.797 52.0553 34.369 52.0553 35.357C52.0553 36.306 51.4573 36.891 50.4563 36.891H48.4153ZM48.4153 41.142V37.697H50.7293C51.8603 37.697 52.5103 38.321 52.5103 39.387C52.5103 40.518 51.7823 41.142 50.4823 41.142H48.4153ZM60.6558 38.477C60.6558 37.021 59.8368 35.487 57.8738 35.487C56.0148 35.487 55.0268 37.021 55.0268 38.828C55.0268 40.648 56.0278 42.104 57.9778 42.104C58.9658 42.104 59.7068 41.818 60.4608 41.025L59.8368 40.479C59.2518 41.103 58.6928 41.285 57.9908 41.285C56.7298 41.285 55.9498 40.44 55.9238 39.036H60.6168C60.6428 38.88 60.6558 38.659 60.6558 38.477ZM57.8738 36.241C59.0568 36.241 59.7198 37.034 59.7848 38.074C59.7848 38.191 59.7978 38.256 59.7978 38.282H55.9238C56.0018 37.151 56.7168 36.241 57.8738 36.241ZM62.3877 34.265H63.4277V32.939H62.3877V34.265ZM62.4657 42H63.3627V35.591H62.4657V42ZM67.9384 41.22C67.0154 41.077 66.2094 40.921 66.2094 40.271C66.2094 39.998 66.3654 39.764 66.6254 39.621C67.0024 39.829 67.4574 39.946 67.9514 39.946C69.3034 39.946 70.3694 39.075 70.3694 37.762C70.3694 37.307 70.2394 36.904 70.0184 36.553L70.8894 35.825L70.4214 35.24L69.5374 36.007C69.1214 35.682 68.5624 35.487 67.9384 35.487C66.5604 35.487 65.4944 36.41 65.4944 37.71C65.4944 38.282 65.7024 38.776 66.0404 39.166C65.5854 39.478 65.3514 39.868 65.3514 40.388C65.3514 41.025 65.6894 41.389 66.1834 41.61L65.1434 42.494C65.1304 42.572 65.1174 42.65 65.1174 42.78C65.1174 44.054 66.1964 44.756 67.9774 44.756C69.5894 44.756 70.7204 44.197 70.7204 42.988C70.7204 41.597 69.2124 41.415 67.9384 41.22ZM67.9514 36.241C68.8744 36.241 69.4724 36.852 69.4724 37.736C69.4724 38.581 68.9004 39.205 67.9384 39.205C66.9764 39.205 66.3784 38.568 66.3784 37.736C66.3784 36.852 67.0414 36.241 67.9514 36.241ZM68.0164 44.002C66.9244 44.002 66.0014 43.716 66.0014 42.806C66.0014 42.78 66.0014 42.754 66.0144 42.689L66.8854 41.844C67.1584 41.909 67.4574 41.961 67.7434 42C68.8094 42.169 69.8234 42.286 69.8234 43.066C69.8234 43.69 69.1474 44.002 68.0164 44.002ZM77.3628 38.477C77.3628 37.021 76.5438 35.487 74.5808 35.487C72.7218 35.487 71.7338 37.021 71.7338 38.828C71.7338 40.648 72.7348 42.104 74.6848 42.104C75.6728 42.104 76.4138 41.818 77.1678 41.025L76.5438 40.479C75.9588 41.103 75.3998 41.285 74.6978 41.285C73.4368 41.285 72.6568 40.44 72.6308 39.036H77.3238C77.3498 38.88 77.3628 38.659 77.3628 38.477ZM74.5808 36.241C75.7638 36.241 76.4268 37.034 76.4918 38.074C76.4918 38.191 76.5048 38.256 76.5048 38.282H72.6308C72.7088 37.151 73.4238 36.241 74.5808 36.241Z" fill="#545C5F"/>
</svg>
