<svg width="124" height="60" viewBox="0 0 124 60" fill="none" xmlns="http://www.w3.org/2000/svg">
<rect width="124" height="60" rx="6" fill="white"/>
<path d="M21.1408 35.13C23.0128 35.13 24.0658 34.155 24.0658 32.634C24.0658 31.373 23.4938 30.645 21.4788 29.878C20.0488 29.332 19.4248 28.89 19.4248 28.058C19.4248 27.291 20.1008 26.641 21.0498 26.641C21.8298 26.641 22.4928 27.057 22.8828 27.759L23.6628 27.278C23.1168 26.316 22.2198 25.809 21.0758 25.809C19.5418 25.809 18.5018 26.719 18.5018 28.097C18.5018 29.28 19.1388 29.93 20.9718 30.619C22.5708 31.23 23.1298 31.737 23.1298 32.712C23.1298 33.609 22.4668 34.298 21.1538 34.298C19.9318 34.298 19.0478 33.557 18.8788 32.387L17.9558 32.608C18.2028 34.129 19.4638 35.13 21.1408 35.13ZM25.9032 35H26.8002V33.115L28.2692 31.555L30.5052 35H31.5712L28.8802 30.996L31.2072 28.591H29.9982L26.8002 31.984V25.939H25.9032V35ZM32.9092 27.265H33.9492V25.939H32.9092V27.265ZM32.9872 35H33.8842V28.591H32.9872V35ZM36.6399 35H37.5369V29.345H39.3829V28.591H37.5369V27.538C37.5369 26.94 37.8489 26.589 38.3559 26.589C38.5769 26.589 38.8239 26.667 39.0969 26.797L39.4089 26.082C39.0059 25.913 38.6159 25.835 38.2649 25.835C37.4459 25.835 36.6529 26.238 36.6529 27.603V28.591H35.2879V29.345H36.6399V35ZM43.4341 34.142C43.1481 34.233 42.9011 34.285 42.6801 34.285C42.1731 34.285 41.8871 33.999 41.8871 33.375V29.345H43.4341V28.591H41.8871V26.251L40.9901 26.927V28.591H39.9241V29.345H40.9901V33.492C40.9901 34.623 41.6141 35.104 42.4721 35.104C42.7711 35.104 43.1091 35.039 43.4471 34.935L43.4341 34.142ZM50.1948 31.477C50.1948 30.021 49.3758 28.487 47.4128 28.487C45.5538 28.487 44.5658 30.021 44.5658 31.828C44.5658 33.648 45.5668 35.104 47.5168 35.104C48.5048 35.104 49.2458 34.818 49.9998 34.025L49.3758 33.479C48.7908 34.103 48.2318 34.285 47.5298 34.285C46.2688 34.285 45.4888 33.44 45.4628 32.036H50.1558C50.1818 31.88 50.1948 31.659 50.1948 31.477ZM47.4128 29.241C48.5958 29.241 49.2588 30.034 49.3238 31.074C49.3238 31.191 49.3368 31.256 49.3368 31.282H45.4628C45.5408 30.151 46.2558 29.241 47.4128 29.241ZM55.0208 28.474C54.1108 28.474 53.3828 28.825 52.9018 29.449V25.939H52.0048V35H52.9018V34.142C53.3698 34.74 54.0848 35.104 55.0208 35.104C56.8928 35.104 57.8678 33.7 57.8678 31.789C57.8678 29.787 56.8018 28.474 55.0208 28.474ZM54.8908 34.311C53.5388 34.311 52.8238 33.245 52.8238 31.789C52.8238 30.268 53.6038 29.267 54.8908 29.267C56.1908 29.267 56.9708 30.268 56.9708 31.789C56.9708 33.245 56.2558 34.311 54.8908 34.311ZM62.2325 35.104C64.0655 35.104 65.3135 33.674 65.3135 31.789C65.3135 29.891 64.0525 28.487 62.2325 28.487C60.3995 28.487 59.1645 29.891 59.1645 31.789C59.1645 33.687 60.3995 35.104 62.2325 35.104ZM62.2325 34.311C60.8675 34.311 60.0615 33.245 60.0615 31.789C60.0615 30.346 60.8545 29.28 62.2325 29.28C63.5975 29.28 64.4165 30.333 64.4165 31.789C64.4165 33.219 63.6105 34.311 62.2325 34.311ZM71.3816 37.652H72.3436L75.8536 28.591H74.8656L72.9286 33.869L70.7186 28.591H69.7306L72.4476 34.922L71.3816 37.652ZM82.1616 31.477C82.1616 30.021 81.3426 28.487 79.3796 28.487C77.5206 28.487 76.5326 30.021 76.5326 31.828C76.5326 33.648 77.5336 35.104 79.4836 35.104C80.4716 35.104 81.2126 34.818 81.9666 34.025L81.3426 33.479C80.7576 34.103 80.1986 34.285 79.4966 34.285C78.2356 34.285 77.4556 33.44 77.4296 32.036H82.1226C82.1486 31.88 82.1616 31.659 82.1616 31.477ZM79.3796 29.241C80.5626 29.241 81.2256 30.034 81.2906 31.074C81.2906 31.191 81.3036 31.256 81.3036 31.282H77.4296C77.5076 30.151 78.2226 29.241 79.3796 29.241ZM85.1416 35.104C85.4276 35.104 85.7526 35.026 86.0256 34.935L86.0126 34.168C85.8176 34.233 85.5966 34.285 85.4016 34.285C84.9726 34.285 84.8166 33.999 84.8166 33.557V25.939H83.9196V33.609C83.9196 34.61 84.4006 35.104 85.1416 35.104ZM88.6455 35.104C88.9315 35.104 89.2565 35.026 89.5295 34.935L89.5165 34.168C89.3215 34.233 89.1005 34.285 88.9055 34.285C88.4765 34.285 88.3205 33.999 88.3205 33.557V25.939H87.4235V33.609C87.4235 34.61 87.9045 35.104 88.6455 35.104ZM93.4884 35.104C95.3214 35.104 96.5694 33.674 96.5694 31.789C96.5694 29.891 95.3084 28.487 93.4884 28.487C91.6554 28.487 90.4204 29.891 90.4204 31.789C90.4204 33.687 91.6554 35.104 93.4884 35.104ZM93.4884 34.311C92.1234 34.311 91.3174 33.245 91.3174 31.789C91.3174 30.346 92.1104 29.28 93.4884 29.28C94.8534 29.28 95.6724 30.333 95.6724 31.789C95.6724 33.219 94.8664 34.311 93.4884 34.311ZM99.3198 35H100.152L101.881 29.826L103.584 35H104.429L106.301 28.591H105.352L103.961 33.648L102.284 28.591H101.465L99.7748 33.648L98.3968 28.591H97.4348L99.3198 35Z" fill="#545C5F"/>
</svg>
